<svg width="80" height="80" viewBox="0 0 80 80" fill="none" xmlns="http://www.w3.org/2000/svg">
<g clip-path="url(#clip0_22116_4338)">
<rect width="80" height="80" fill="#FAFAFA"/>
<path d="M80 0H0V80H80V0Z" fill="#FA6300"/>
<path d="M39.7501 34.4956C39.7501 32.9919 41.1106 31.8463 42.5426 32.0611C50.3473 33.2067 56.4336 40.0091 56.4336 48.1717C56.362 60.9886 46.1228 63.7096 41.755 64.3539C40.6809 64.4972 39.7501 63.638 39.7501 62.5639C39.7501 62.5639 39.7501 41.8707 39.7501 34.4956Z" fill="#462A71"/>
<path d="M26.8617 49.1742H34.1652C37.2441 49.1742 39.7502 46.6681 39.7502 43.5892V18.4565C39.7502 17.4542 38.9625 16.6665 37.9602 16.6665H34.5231C29.2961 16.6665 25 20.9626 25 26.1896V47.384C25 48.3865 25.8592 49.1742 26.8617 49.1742Z" fill="white"/>
</g>
<defs>
<clipPath id="clip0_22116_4338">
<rect width="80" height="80" fill="white"/>
</clipPath>
</defs>
</svg>
