<svg width="80" height="80" viewBox="0 0 80 80" fill="none" xmlns="http://www.w3.org/2000/svg">
<g clip-path="url(#clip0_22116_4377)">
<rect width="80" height="80" fill="#FAFAFA"/>
<path d="M80 0H0V80H80V0Z" fill="white" fill-opacity="0.58"/>
<mask id="mask0_22116_4377" style="mask-type:luminance" maskUnits="userSpaceOnUse" x="14" y="30" width="52" height="20">
<path d="M65.9375 30.625H14.0625V49.375H65.9375V30.625Z" fill="white"/>
</mask>
<g mask="url(#mask0_22116_4377)">
<mask id="mask1_22116_4377" style="mask-type:luminance" maskUnits="userSpaceOnUse" x="14" y="30" width="52" height="20">
<path d="M65.9375 30.625H14.0625V49.375H65.9375V30.625Z" fill="white"/>
</mask>
<g mask="url(#mask1_22116_4377)">
<path fill-rule="evenodd" clip-rule="evenodd" d="M30.7738 33.7523H30.4093L30.4169 35.6235H30.8722C31.3441 35.6235 31.7507 35.2878 31.7507 34.6982C31.7507 34.0688 31.4055 33.7523 30.7738 33.7523ZM29.2711 31.4634H31.2494C32.169 31.4634 32.7674 31.7634 32.7674 32.449C32.7674 33.1346 32.0193 33.4359 31.5422 33.5153V33.5793C32.0091 33.5985 32.8915 33.8856 32.8915 34.6507C32.8915 35.562 32.0449 35.9324 31.1357 35.9324H29.2699L29.2711 31.4634ZM30.8429 31.7735H30.4336L30.4093 33.4396H30.7929C31.2443 33.4396 31.7021 33.1526 31.7021 32.5732C31.6983 32.1401 31.4719 31.7735 30.8429 31.7735ZM35.5269 34.2087L35.4783 34.2317C35.3683 34.282 35.2552 34.3248 35.1394 34.3598C35.0251 34.3942 34.9136 34.437 34.8057 34.4881C34.6893 34.5412 34.5921 34.6293 34.5274 34.7401C34.4629 34.851 34.4341 34.9792 34.4451 35.107C34.4451 35.4428 34.6254 35.6388 34.9169 35.6401C35.2763 35.6401 35.5257 35.3979 35.5257 34.9571L35.5269 34.2087ZM33.5999 33.0846C34.0333 32.8284 34.6305 32.7348 35.1024 32.7348C35.908 32.7348 36.4732 33.0257 36.4732 33.7742V35.9349H35.5371C35.5433 35.8137 35.5433 35.6921 35.5371 35.571V35.4903L35.4835 35.5531C35.3688 35.7015 35.221 35.8212 35.0521 35.9024C34.8832 35.9835 34.6977 36.0242 34.5104 36.0207C33.7519 36.0207 33.4463 35.5928 33.4463 35.1917C33.4463 34.6456 33.8671 34.4085 34.5576 34.2637C35.4055 34.0895 35.5205 34.0343 35.5205 33.7665C35.5205 33.4281 35.2238 33.1615 34.7533 33.1615C34.3986 33.1546 34.0483 33.2404 33.7366 33.4101L33.5999 33.0846ZM46.954 32.9693C46.4502 32.9693 46.1599 33.482 46.1599 34.4674C46.1599 35.1981 46.3415 35.794 46.9451 35.7953C47.4566 35.7953 47.7122 35.2301 47.7122 34.2188C47.7172 33.4628 47.4949 32.9693 46.954 32.9681V32.9693ZM46.9386 32.7385C48.1061 32.7385 48.7866 33.3524 48.7866 34.3176C48.7866 35.3685 48.0268 36.0259 46.9374 36.0259C46.0319 36.0259 45.0896 35.5979 45.0896 34.461C45.0896 33.3243 45.9847 32.7373 46.9386 32.7373V32.7385ZM44.6496 33.4051C44.5204 33.2709 44.3638 33.166 44.1907 33.0978C44.0174 33.0295 43.8316 32.9992 43.6458 33.009C43.0179 33.009 42.6919 33.5421 42.6905 34.3945C42.6905 35.2031 43.101 35.662 43.8683 35.662C44.1566 35.6601 44.4351 35.5576 44.656 35.3723L44.7993 35.5646C44.4411 35.8476 44.0019 36.0079 43.5461 36.0221C42.0691 36.0221 41.5832 35.1698 41.5832 34.3842C41.5832 33.4396 42.3632 32.7348 43.578 32.7348C44.0216 32.7254 44.4608 32.8253 44.8568 33.0257L44.6496 33.4051ZM38.4821 33.314H38.5486C38.6815 33.1356 38.854 32.9904 39.0524 32.8901C39.2507 32.7898 39.4696 32.7371 39.6919 32.736C40.4411 32.736 40.8646 33.0898 40.8646 33.9138C40.8646 34.347 40.8491 35.5595 40.8646 35.9388H39.7815V34.0831C39.7815 33.5345 39.633 33.2487 39.2021 33.2487C38.7072 33.2487 38.5627 33.6446 38.5627 34.2471V35.9362H37.4783V32.8193H38.5154L38.4821 33.314Z" fill="#FAAE29"/>
<path fill-rule="evenodd" clip-rule="evenodd" d="M14.8992 46.9312H27.972V47.1951L14.8992 47.1938V46.9312ZM14.8992 47.7782H27.972V48.5818H14.8992V47.7782ZM14.8992 32.8462H27.972V33.1103H14.8992V32.8462ZM14.8992 31.4634H27.9771V32.2721L14.8992 32.267V31.4634ZM49.3964 45.4765V45.2201C48.5717 45.2201 48.2454 45.0254 48.2454 44.1462V38.666C48.2454 37.7856 48.574 37.592 49.3964 37.592V37.3357H44.4604V37.592C45.2981 37.592 45.6254 37.7868 45.6254 38.666V44.1513C45.6254 45.0306 45.2967 45.2253 44.4592 45.2253V45.4817L49.3964 45.4765ZM29.8173 41.4023C29.8173 38.7288 30.6434 37.6998 31.8326 37.701C33.0218 37.7023 33.8467 38.7262 33.8454 41.4035C33.8442 44.0809 33.0193 45.106 31.8301 45.1048C30.6407 45.1035 29.816 44.0757 29.8173 41.4023ZM27.1229 41.4023C27.1229 44.1795 29.137 45.6085 31.8301 45.6098C34.5231 45.611 36.5385 44.1821 36.5398 41.406C36.541 38.6301 34.527 37.1999 31.8326 37.1985C29.1382 37.1973 27.1242 38.6251 27.1229 41.401V41.4023ZM50.0654 45.5226H50.3312C50.3779 45.4093 50.457 45.3123 50.5584 45.244C50.6598 45.1756 50.7793 45.1388 50.9018 45.1382C51.1575 45.1382 52.4912 45.6187 53.5868 45.6187C55.5053 45.6187 56.9373 44.8498 56.9373 42.9351C56.9373 39.8156 52.1085 40.4078 52.1099 38.739C52.1099 38.042 52.716 37.7138 53.4935 37.7138C54.9001 37.7138 55.9921 38.4828 56.3068 39.7721H56.5729V37.3434H56.3057C56.2814 37.7087 56.1599 37.8228 55.9056 37.8228C55.4437 37.8228 54.8376 37.2049 53.357 37.2049C51.7559 37.2049 50.0921 37.992 50.0921 39.6837C50.0921 42.6774 55.0179 42.1532 55.0179 44.0617C55.0179 44.7704 54.2506 45.1124 53.3429 45.1124C51.8864 45.1124 50.6126 44.2321 50.3339 42.7338H50.0654V45.5226ZM60.9156 42.4468H58.9835L59.9551 40.0476L60.9156 42.4468ZM59.1676 45.4867V45.2304C58.427 45.2304 58.2212 45.0138 58.2212 44.7178C58.2312 44.4959 58.2845 44.2781 58.3784 44.077L58.8159 42.9004H61.1101L61.679 44.2603C61.755 44.434 61.8006 44.6196 61.8132 44.8088C61.8132 45.0831 61.5946 45.2317 61.3146 45.2317H60.7687V45.4881H65.1382V45.2317C64.7379 45.1971 64.6406 45.1407 64.422 44.637L61.3531 37.346H60.504L57.7225 44.1385C57.3698 44.9959 57.1635 45.1779 56.6662 45.224V45.4803L59.1676 45.4867ZM41.601 45.4803V45.224C40.7635 45.224 40.4362 45.0292 40.4362 44.1499V41.5881C41.7468 41.5881 42.2801 41.7829 42.3543 43.144H42.6215V39.5374H42.3556C42.2814 40.8973 41.7482 41.0909 40.4374 41.0909V37.8407H41.844C43.1049 37.8407 43.7623 38.3674 43.8812 39.5785H44.1484V37.3382H36.6498V37.5946C37.4873 37.5946 37.8146 37.7895 37.8146 38.6685V44.1513C37.8146 45.0306 37.486 45.2253 36.6484 45.2253V45.4817L41.601 45.4803ZM17.1664 41.8201C17.5667 43.8501 19.3071 45.0395 21.2931 45.0395C22.5245 45.0395 23.619 44.5756 23.619 43.5592C23.619 42.8826 23.1792 42.4262 22.5487 42.0623C22.2018 41.8713 21.842 41.7048 21.472 41.5637C21.082 41.4074 20.6651 41.2562 20.2482 41.0921C18.5706 40.4346 16.9453 39.6157 16.9453 37.6318C16.9453 35.3928 19.1473 34.3329 21.3084 34.3329C22.0687 34.3256 22.8231 34.4667 23.5296 34.7482C23.7968 34.852 24.0206 34.9571 24.2162 35.0353C24.3871 35.1134 24.571 35.159 24.7584 35.1698C25.1293 35.1698 25.3109 34.9943 25.3543 34.5201H25.6101V37.6843H25.3543C24.9068 35.9337 23.4106 34.8993 21.4989 34.8981C20.4375 34.8981 19.5679 35.3543 19.5679 36.3488C19.5679 36.9474 20.004 37.3357 20.6204 37.6459C21.2368 37.956 22.0437 38.1995 22.862 38.5123C24.4976 39.1223 26.0948 39.9643 26.0935 42.0342C26.0935 44.5704 24.1984 45.6123 21.6178 45.611C20.8659 45.587 20.1192 45.4782 19.3915 45.2868C19.0514 45.206 18.7521 45.124 18.5065 45.0638C18.3371 45.0132 18.1632 44.9785 17.9875 44.9601C17.8162 44.9613 17.649 45.0113 17.5051 45.1045C17.3614 45.1974 17.247 45.3296 17.1754 45.4854H16.9081V41.8201H17.1664Z" fill="#00A88F"/>
</g>
</g>
</g>
<defs>
<clipPath id="clip0_22116_4377">
<rect width="80" height="80" fill="white"/>
</clipPath>
</defs>
</svg>
