<svg width="80" height="80" viewBox="0 0 80 80" fill="none" xmlns="http://www.w3.org/2000/svg">
<g clip-path="url(#clip0_22116_4358)">
<rect width="80" height="80" fill="#FDFC30"/>
<path d="M18.3584 56.3728L22.968 53.3008L27.5776 56.3728L18.3584 62.5216V56.3728Z" fill="#505EFC"/>
<path d="M62.6128 24.416L58.0032 27.488L53.3936 24.416L62.6128 18.2656V24.416Z" fill="#505EFC"/>
<path d="M62.6128 47.7681L40.4864 62.5217L18.3584 47.7681L44.6368 30.2529L49.2464 33.3265L28.04 47.4625L40.9472 56.0689L46.9392 52.0737L42.3296 48.9985L53.3936 41.6209L62.6128 47.7681Z" fill="#505EFC"/>
<path d="M18.3584 33.0208L40.488 18.272L62.616 33.0208L36.3376 50.5376L31.728 47.4624L52.9344 33.3264L40.0256 24.7232L34.0336 28.7184L38.6432 31.7904L27.5776 39.1696L18.3584 33.0208Z" fill="#505EFC"/>
</g>
<defs>
<clipPath id="clip0_22116_4358">
<rect width="80" height="80" fill="white"/>
</clipPath>
</defs>
</svg>
