<svg width="80" height="80" viewBox="0 0 80 80" fill="none" xmlns="http://www.w3.org/2000/svg">
<rect width="80" height="80" fill="#202E55"/>
<path d="M20.4203 25.8017C20.4203 24.8782 19.839 24.2329 19.0093 24.2329H18.9922C18.1531 24.2423 17.6093 24.8657 17.6078 25.8235C17.6062 27.1688 17.6062 28.1298 17.6062 29.4751V31.4204C15.8687 29.972 14.0218 29.2657 11.9734 29.2657C11.7734 29.2657 11.5703 29.272 11.3656 29.286C8.85309 29.4548 6.79059 30.5376 5.23278 32.5048C2.6359 35.786 2.83746 40.4517 5.71246 43.5985C7.23121 45.261 9.55465 46.2548 11.9281 46.2548C13.9547 46.2548 15.9093 45.5313 17.6031 44.1579C17.6031 44.3563 17.6031 44.5313 17.6047 44.7048C17.6125 45.6657 18.1484 46.2626 19.0015 46.2626H19.014C19.8656 46.2563 20.4172 45.6376 20.4172 44.6829C20.425 37.5782 20.425 31.661 20.4203 25.8017ZM17.6062 37.7657C17.6093 39.2751 17.0218 40.6985 15.95 41.7735C14.875 42.8517 13.4484 43.447 11.925 43.4485C8.79684 43.4485 6.24996 40.9048 6.2484 37.7767C6.24684 34.6423 8.78746 32.0907 11.9125 32.0892L11.9172 31.897V32.0892C15.0453 32.0907 17.5984 34.636 17.6062 37.7657Z" fill="#F9F9F9"/>
<path d="M27.6656 35.8736C27.664 34.9533 27.0859 34.3096 26.2609 34.3096H26.239C25.4077 34.3205 24.8484 34.958 24.8452 35.8955C24.8421 36.9674 24.8421 37.7502 24.8437 38.8221V40.158V41.4799C24.8437 42.5377 24.8421 43.5939 24.8452 44.6518C24.8468 45.6314 25.3984 46.2643 26.2515 46.2643H26.2671C27.1156 46.2564 27.6656 45.6377 27.6671 44.6861C27.6734 41.3971 27.6734 38.7096 27.6656 35.8736Z" fill="#F9F9F9"/>
<path d="M26.3093 29.2578C26.2937 29.2578 26.2796 29.2578 26.264 29.2578C25.364 29.2578 24.6062 29.9937 24.5734 30.8984C24.5578 31.35 24.725 31.7844 25.0468 32.1187C25.3656 32.45 25.8062 32.6422 26.2562 32.6453H26.2656C27.1828 32.6453 27.9406 31.8984 27.9578 30.9797C27.9765 30.0547 27.2359 29.2828 26.3093 29.2578Z" fill="#00CBC6"/>
<path d="M47.3657 43.1357C47.1969 42.867 47.1969 42.7514 47.3704 42.492C49.4876 39.3076 49.2501 35.1873 46.7797 32.2404C46.7407 32.1936 46.7032 32.1451 46.661 32.0889C46.6719 32.0889 46.6813 32.0889 46.6922 32.0889C46.8063 32.0904 46.9157 32.0904 47.0188 32.0904C47.1751 32.0904 47.7844 32.0889 47.9016 32.0842C48.5454 32.0623 48.9969 31.7326 49.2079 31.1311C49.3641 30.6857 49.3126 30.2436 49.0626 29.8904C48.7829 29.4936 48.2907 29.2654 47.711 29.2639L47.0266 29.2623C45.9204 29.2576 44.7766 29.2529 43.6516 29.2529C42.3547 29.2529 41.2219 29.2592 40.1876 29.2732C39.5344 29.2811 38.8672 29.3701 38.2063 29.5357C34.1001 30.5639 31.3079 34.5842 31.8469 38.6873C32.1282 40.8264 33.1266 42.7607 34.6594 44.1342C36.1938 45.5092 38.1985 46.267 40.3079 46.267C42.0094 46.267 43.5719 45.7936 45.0782 44.8217C45.6907 45.7404 45.9876 46.7514 45.986 47.9029C45.9813 50.6232 43.9235 53.0186 41.1985 53.4732C40.9016 53.5232 40.5985 53.5482 40.2969 53.5482C37.911 53.5482 35.7688 52.0295 34.9688 49.7717C34.8985 49.5717 34.8501 49.3654 34.7985 49.1467C34.7657 49.0092 34.7329 48.867 34.6938 48.7279C34.511 48.0795 33.9469 47.6264 33.3204 47.6264C33.2407 47.6264 33.161 47.6342 33.0829 47.6482C32.3266 47.7904 31.8626 48.4107 31.9282 49.192C31.9547 49.5061 32.0172 49.8232 32.1141 50.1357C33.2079 53.6467 35.6219 55.7639 39.0969 56.2561C39.5782 56.3248 40.0547 56.3592 40.5126 56.3592C43.4219 56.3592 45.8297 54.9795 47.475 52.367C48.4188 50.8701 48.8813 49.3154 48.8501 47.7482C48.8235 46.217 48.3235 44.6654 47.3657 43.1357ZM40.3126 43.4482H40.2954C37.1688 43.4389 34.6297 40.8842 34.6329 37.7545C34.636 34.6311 37.1844 32.0889 40.3126 32.0889V31.8967L40.3204 32.0889C41.8282 32.0904 43.2547 32.6904 44.3344 33.7748C45.411 34.8561 46 36.2779 45.9938 37.7795C45.9813 40.9061 43.4329 43.4482 40.3126 43.4482Z" fill="#F9F9F9"/>
<path d="M55.8296 35.8736C55.8281 34.9533 55.2499 34.3096 54.4249 34.3096H54.4031C53.5718 34.3205 53.0124 34.958 53.0093 35.8955C53.0062 36.9674 53.0062 37.7502 53.0077 38.8221V40.158V41.4799C53.0077 42.5377 53.0062 43.5939 53.0093 44.6518C53.0109 45.6314 53.5624 46.2643 54.4156 46.2643H54.4312C55.2796 46.2564 55.8296 45.6377 55.8312 44.6861C55.8359 41.3971 55.8359 38.7096 55.8296 35.8736Z" fill="#F9F9F9"/>
<path d="M54.4734 29.2578C54.4578 29.2578 54.4437 29.2578 54.4281 29.2578C53.5281 29.2578 52.7703 29.9937 52.7375 30.8984C52.7218 31.35 52.889 31.7844 53.2109 32.1187C53.5296 32.45 53.9703 32.6422 54.4203 32.6453H54.4296C55.3468 32.6453 56.1046 31.8984 56.1218 30.9797C56.1406 30.0547 55.4 29.2828 54.4734 29.2578Z" fill="#00CBC6"/>
<path d="M74.636 31.7373C73.0422 30.1404 70.9125 29.2607 68.6391 29.2607C66.3735 29.2607 64.2406 30.1404 62.6344 31.7373C61.0281 33.3342 60.1344 35.4623 60.1203 37.7311C60.1047 39.9936 60.9813 42.1326 62.5891 43.7529C64.1922 45.3686 66.3156 46.2623 68.5688 46.267H68.5875C70.8859 46.267 73.0328 45.3936 74.6344 43.8061C76.2375 42.2186 77.1219 40.0873 77.125 37.8061C77.125 35.5014 76.2422 33.3467 74.636 31.7373ZM68.6203 43.4482C67.1156 43.4482 65.6953 42.8561 64.6234 41.7795C63.5469 40.6998 62.9578 39.2701 62.9625 37.7561C62.9734 34.6311 65.5172 32.0904 68.6328 32.0904H68.6453C70.1563 32.0936 71.5781 32.6889 72.65 33.7654C73.7219 34.8436 74.3094 36.2686 74.3031 37.7811C74.2938 40.9061 71.7453 43.4498 68.6203 43.4482Z" fill="#F9F9F9"/>
</svg>
