<svg width="80" height="80" viewBox="0 0 80 80" fill="none" xmlns="http://www.w3.org/2000/svg">
<rect width="80" height="80" fill="#FAFAFA"/>
<path d="M13.0874 10.2107L12.2296 15.7217C24.4531 18.2045 35.3656 24.3686 43.7296 33.0139L56.3124 24.7545C56.3124 24.7545 57.7624 23.7764 58.439 24.5936C58.439 24.5936 59.0999 25.2326 57.8312 26.592L47.4984 37.3045C54.7781 46.3889 59.4999 57.5936 60.5687 69.8342H66.4531L75.7812 10.2061L13.0874 10.2107Z" fill="#009EE2"/>
<path d="M25.1312 52.6809L24.5562 51.9855L38.0109 36.8715C30.7656 29.709 21.5109 24.5824 11.1765 22.4199L5.69529 57.4637C4.73904 64.0371 5.93436 69.834 16.889 69.834H53.7609C52.7437 59.4902 48.7906 49.998 42.7484 42.2027L25.1312 52.6809Z" fill="#003D7C"/>
</svg>
