<svg width="80" height="80" viewBox="0 0 80 80" fill="none" xmlns="http://www.w3.org/2000/svg">
<rect width="80" height="80" fill="#FAFAFA"/>
<path d="M54.9047 28.2576L48.8953 17.7951C48.3 16.7592 47.2 16.1201 46.0093 16.1201H33.9906C32.8 16.1201 31.7 16.7592 31.1047 17.7951L25.0953 28.2576C24.5 29.2936 24.5 30.5717 25.0953 31.6076L31.1047 42.0701C31.7 43.1061 32.8 43.7451 33.9906 43.7451H38.35L40 40.8732H33.9906C33.8203 40.8732 33.6625 40.7811 33.5781 40.6342L27.5687 30.1717C27.4844 30.0248 27.4844 29.8404 27.5687 29.6936L33.5781 19.2311C33.6625 19.0842 33.8203 18.992 33.9906 18.992H46.0093C46.1797 18.992 46.3375 19.0842 46.4219 19.2311L52.4312 29.6936C52.5156 29.8404 52.5156 30.0248 52.4312 30.1717L48.9375 36.2561H52.2359L54.9062 31.6076C55.5015 30.5717 55.5015 29.2936 54.9062 28.2576H54.9047Z" fill="#0094FF"/>
<path d="M44.3187 48.392L41.65 43.7436H38.3515L41.8453 49.8264C41.9297 49.9732 41.9297 50.1576 41.8453 50.3045L35.8359 60.767C35.7515 60.9139 35.5937 61.0061 35.4234 61.0061H23.4047C23.2343 61.0061 23.0765 60.9139 22.9922 60.767L16.9828 50.3045C16.8984 50.1576 16.8984 49.9732 16.9828 49.8264L22.9922 39.3639C23.0765 39.217 23.2343 39.1248 23.4047 39.1248H29.414L27.7656 36.2529H23.4047C22.214 36.2529 21.114 36.892 20.5187 37.9279L14.5094 48.3904C13.914 49.4264 13.914 50.7045 14.5094 51.7404L20.5187 62.2029C21.114 63.2389 22.214 63.8779 23.4047 63.8779H35.4234C36.614 63.8779 37.714 63.2389 38.3093 62.2029L44.3187 51.7404C44.914 50.7045 44.914 49.4264 44.3187 48.3904V48.392Z" fill="#936FFA"/>
<path d="M65.4906 48.3924L59.4812 37.9299C58.8859 36.8939 57.7859 36.2549 56.5953 36.2549H44.5766C43.3859 36.2549 42.2859 36.8939 41.6906 37.9299L38.3516 43.7439H41.65L44.1641 39.3658C44.2484 39.2189 44.4063 39.1268 44.5766 39.1268H56.5953C56.7656 39.1268 56.9234 39.2189 57.0078 39.3658L63.0172 49.8283C63.1016 49.9752 63.1016 50.1596 63.0172 50.3064L57.0078 60.7689C56.9234 60.9158 56.7656 61.008 56.5953 61.008H44.5766C44.4063 61.008 44.2484 60.9158 44.1641 60.7689L41.6406 56.4033L39.9922 59.2736L41.6906 62.2049C42.2859 63.2408 43.3859 63.8799 44.5766 63.8799H56.5953C57.7859 63.8799 58.8859 63.2408 59.4812 62.2049L65.4906 51.7424C66.0859 50.7064 66.0859 49.4283 65.4906 48.3924Z" fill="#1CD8CA"/>
</svg>
