<svg width="80" height="80" viewBox="0 0 80 80" fill="none" xmlns="http://www.w3.org/2000/svg">
<g clip-path="url(#clip0_22116_4384)">
<rect width="80" height="80" fill="#CC092F"/>
<path d="M38.696 27.0402C35.7788 27.0515 32.8675 27.3041 29.992 27.7954C31.5437 25.8169 33.5261 24.2183 35.7885 23.1212C38.0509 22.0241 40.5336 21.4574 43.048 21.4642C46.96 21.4642 50.872 22.9394 53.5056 25.133C53.9856 25.5298 54.3472 25.565 54.712 25.205C55.0768 24.845 55.0416 24.4866 54.64 24.0178C51.2016 20.0178 46.16 17.3266 40.1952 17.4338C32.4064 17.5778 25.7872 22.5074 23.264 29.3426C21.0829 30.0002 18.9753 30.8806 16.9744 31.9698C16.4624 32.2578 16.28 32.6098 16.4624 33.0482C16.6448 33.445 17.0112 33.589 17.5232 33.445C19.1232 32.9762 20.7776 32.581 22.496 32.221C22.3047 33.1443 22.2066 34.0844 22.2032 35.0274C22.0576 41.3234 25.4208 47.2962 30.6144 50.5714C31.1264 50.8914 31.5648 50.8914 31.8576 50.4994C32.1504 50.1074 32.1136 49.7426 31.6752 49.3474C28.384 46.397 26.5552 42.0082 26.5552 37.6546C26.5449 35.5135 26.9808 33.3938 27.8352 31.4306C29.5536 31.2866 31.4192 31.1778 33.4672 31.1778C46.7776 31.1778 58.0032 35.5666 58.0032 41.3234C58.0032 44.2386 54.3104 47.1522 49.9216 49.0962C48.8608 49.5634 48.752 49.8866 48.8976 50.3554C49.0448 50.7858 49.52 50.9298 50.0688 50.7506C57.7488 48.2322 63.5616 44.0946 63.5616 39.093C63.5616 32.2962 52.592 27.0402 38.696 27.0402Z" fill="white"/>
<path d="M45.0511 61.6305V47.0625C45.0511 46.5041 44.5119 46.3009 44.0687 46.5537L40.3647 48.6849V62.3329H44.3423C44.5292 62.3329 44.7086 62.2591 44.8413 62.1275C44.974 61.996 45.0495 61.8173 45.0511 61.6305Z" fill="white"/>
<path d="M35.856 51.8081V61.8881C35.856 61.9482 35.8679 62.0077 35.8909 62.0632C35.9139 62.1188 35.9476 62.1692 35.9901 62.2117C36.0326 62.2542 36.083 62.2879 36.1385 62.3109C36.194 62.3339 36.2535 62.3457 36.3136 62.3457H39.1152V49.4033L36.32 51.0145C36.1754 51.0891 36.0549 51.2034 35.9727 51.3439C35.8906 51.4844 35.8501 51.6454 35.856 51.8081Z" fill="white"/>
</g>
<defs>
<clipPath id="clip0_22116_4384">
<rect width="80" height="80" fill="white"/>
</clipPath>
</defs>
</svg>
