<svg width="80" height="80" viewBox="0 0 80 80" fill="none" xmlns="http://www.w3.org/2000/svg">
<g clip-path="url(#clip0_22116_4378)">
<rect width="80" height="80" fill="#001E61"/>
<path fill-rule="evenodd" clip-rule="evenodd" d="M51.9842 38.489L52.5961 35.4408H47.3271V31.2783L43.6284 31.8556V44.2892C43.6284 48.5864 45.2776 49.8699 49.7749 49.8699H51.7398L52.3517 46.8505H50.0424C47.9949 46.8505 47.329 46.3329 47.329 44.0486V38.489H51.9842Z" fill="white"/>
<path fill-rule="evenodd" clip-rule="evenodd" d="M34.3682 34.9754C32.9307 34.9754 31.3604 35.2737 30.2962 36.1185V29.2388L26.5706 29.8373V43.1964C26.5706 48.1479 28.8067 50.2147 33.6754 50.2147C38.7328 50.2147 40.967 48.2018 40.967 43.2234V41.9436C40.9631 37.2654 38.8906 34.9754 34.3682 34.9754ZM37.2683 43.2195C37.2683 46.21 36.3638 47.2454 33.7563 47.2454C31.1487 47.2454 30.2423 46.21 30.2423 43.1907V41.6511C30.2423 38.9031 31.1487 37.9775 33.8082 37.9775C36.3638 37.9775 37.2721 39.0109 37.2721 42.0861L37.2683 43.2195Z" fill="white"/>
<path fill-rule="evenodd" clip-rule="evenodd" d="M60.925 34.975C56.0543 34.975 53.8201 37.0687 53.8201 41.8585V42.5917C53.8201 47.1352 55.7618 49.3387 60.34 49.3387C61.8025 49.3387 63.267 49.0673 64.3042 48.2244V48.769C64.3042 51.3266 63.2131 52.1675 60.6594 52.1675H59.1199C58.2462 52.1849 57.8479 52.3427 57.3206 53.226C52.933 60.327 45.3143 64.6627 37.0124 64.6627C23.7668 64.6627 12.9921 53.6474 12.9921 40.1054C12.9921 26.5634 23.7687 15.5462 37.0124 15.5462C46.3169 15.5462 54.7804 21.0539 58.7408 29.6271H59.8454C55.8042 20.4477 46.8615 14.5225 37.0124 14.5225C23.2164 14.5225 11.9952 25.9996 11.9952 40.1054C11.9952 54.2112 23.2203 65.6864 37.0124 65.6864C45.1276 65.6864 52.6154 61.7087 57.284 55.1022H60.8634C65.5743 55.1022 67.9952 53.2798 67.9952 48.6286V41.6161C68.0029 36.9917 65.6879 34.975 60.925 34.975ZM64.3312 43.0574C64.3312 45.615 63.4536 46.402 60.925 46.402C58.0769 46.402 57.5188 45.3956 57.5188 42.432V41.9682C57.5188 39.0297 58.0249 37.9693 60.925 37.9693C63.7731 37.9693 64.3312 39.0027 64.3312 41.9952V43.0574Z" fill="white"/>
</g>
<defs>
<clipPath id="clip0_22116_4378">
<rect width="80" height="80" fill="white"/>
</clipPath>
</defs>
</svg>
