<svg width="80" height="80" viewBox="0 0 80 80" fill="none" xmlns="http://www.w3.org/2000/svg">
<rect width="80" height="80" fill="#242424"/>
<path fill-rule="evenodd" clip-rule="evenodd" d="M30.9061 44.7907C31.8838 43.9509 32.5223 42.8476 32.8227 41.4808H42.481C42.0373 45.3863 40.4341 48.5497 37.6709 50.9712C34.9076 53.3924 31.5053 54.6032 27.4651 54.6032C24.5194 54.6032 21.8667 53.9688 19.5076 52.6994C17.1488 51.4299 15.3072 49.6661 13.9844 47.4072C12.6613 45.1488 12 42.6131 12 39.8015C12 36.9897 12.6613 34.4545 13.9844 32.1956C15.3072 29.9371 17.1488 28.1731 19.5076 26.9038C21.8667 25.6347 24.5194 25 27.4651 25C31.4404 25 34.797 26.1686 37.5343 28.5051C40.2712 30.8421 41.8874 33.9042 42.3827 37.6926H32.8613C32.4571 36.4429 31.7663 35.4373 30.7888 34.6756C29.8116 33.9139 28.7168 33.5331 27.5038 33.5331C25.8356 33.5331 24.4899 34.1095 23.4669 35.2615C22.4432 36.4137 21.9318 37.927 21.9318 39.8015C21.9318 41.6632 22.4469 43.1699 23.4766 44.3219C24.5063 45.4741 25.8486 46.0501 27.5038 46.0501C28.7945 46.0501 29.9286 45.6303 30.9061 44.7907ZM65.1853 37.0941C67.0613 38.8583 68 41.139 68 43.9366C68 47.1339 66.9202 49.7109 64.7611 51.668C62.6015 53.6248 59.7552 54.6032 56.2229 54.6032C52.7322 54.6032 49.893 53.6211 47.7061 51.6575C45.519 49.6933 44.4257 47.1476 44.4257 44.019C44.4257 42.3105 44.7261 40.5912 45.3259 38.8615C45.9263 37.1324 46.8539 35.2408 48.1099 33.187L52.5501 25.948L61.9301 25.9459L56.6783 34.4895C57.2025 34.4619 57.6164 34.4482 57.9206 34.4482C60.8869 34.4482 63.3082 35.3301 65.1853 37.0941ZM58.852 46.5617C59.5274 45.8867 59.8657 45.0114 59.8657 43.9366C59.8657 42.8615 59.5274 41.9796 58.852 41.2905C58.1756 40.6013 57.2994 40.2568 56.2229 40.2568C55.1469 40.2568 54.2703 40.6013 53.5949 41.2905C52.9183 41.9796 52.5802 42.8615 52.5802 43.9366C52.5802 45.0114 52.9183 45.8867 53.5949 46.5617C54.2703 47.2371 55.1469 47.5747 56.2229 47.5747C57.2994 47.5747 58.1756 47.2371 58.852 46.5617Z" fill="white"/>
</svg>
