<svg width="80" height="80" viewBox="0 0 80 80" fill="none" xmlns="http://www.w3.org/2000/svg">
<g clip-path="url(#clip0_22116_4382)">
<rect width="80" height="80" fill="#FAFAFA"/>
<path d="M80 0H0V80H80V0Z" fill="white"/>
<path d="M44.7158 29.62C45.3961 29.62 45.9731 29.6795 46.4467 29.798L45.732 32.4972C45.6517 32.8005 45.3555 32.9886 45.0456 32.9427C44.8956 32.9205 44.7489 32.9095 44.6052 32.9095C44.1756 32.9095 43.8691 33.0059 43.6841 33.1983C43.4989 33.3912 43.3547 33.7761 43.2514 34.3541L43.1181 35.043H44.938L44.4342 37.6591C44.3789 37.9467 44.1273 38.1545 43.8348 38.1545H42.497L41.1948 45.1414C40.8841 46.8602 40.2664 48.153 39.3419 49.0198C38.4172 49.8866 37.2373 50.32 35.8027 50.32C35.3717 50.32 34.9523 50.2933 34.545 50.2398C34.1744 50.1909 33.9303 49.8292 34.03 49.4688L34.7595 46.8305C34.8927 46.8748 35.0481 46.9086 35.2256 46.9305C35.4031 46.953 35.5586 46.9639 35.6916 46.9639C36.1061 46.9639 36.4272 46.8378 36.6569 46.5859C36.8861 46.3339 37.0747 45.8228 37.223 45.0527L38.5248 38.1545H37.1491L37.6723 35.5344C37.7294 35.2487 37.9797 35.043 38.2708 35.043H39.1461L39.3016 34.1542C39.5528 32.6577 40.1003 31.528 40.9436 30.7647C41.7869 30.0017 43.0441 29.62 44.7158 29.62ZM14.8264 34.7541C15.4919 34.7541 16.1575 34.8208 16.8234 34.9542L16.0517 37.8627C15.968 38.1775 15.6547 38.3622 15.3347 38.3028C15.122 38.2633 14.8934 38.2434 14.6488 38.2434C14.2639 38.2434 13.92 38.3361 13.6169 38.5214C13.3135 38.7069 13.0694 38.9545 12.8847 39.2658C12.6995 39.5769 12.559 39.918 12.4631 40.2881C12.3667 40.6587 12.3189 41.0366 12.3189 41.4216C12.3189 42.3406 12.7921 42.7997 13.739 42.7997C14.2862 42.7997 14.7821 42.7256 15.2258 42.5772L14.8538 45.6767C14.8228 45.9333 14.6355 46.1428 14.3842 46.2012C13.8141 46.3337 13.1926 46.4002 12.5187 46.4002C11.0241 46.4002 9.91861 46.052 9.20125 45.3555C8.48347 44.6594 8.125 43.6442 8.125 42.3106C8.125 41.2589 8.28367 40.2697 8.60187 39.3436C8.91986 38.418 9.37478 37.6102 9.96661 36.9209C10.558 36.232 11.2683 35.6986 12.0969 35.3208C12.9254 34.943 13.835 34.7541 14.8264 34.7541ZM67.1273 34.7764C67.9261 34.7764 68.7062 34.8061 69.4684 34.8652C70.2302 34.9247 70.9736 35.0209 71.6984 35.1542L70.1894 43.0441C70.3044 43.0656 71.8559 43.0355 72.0312 43.0506L71.6266 45.4583C71.5772 45.7264 71.357 45.9314 71.0864 45.957C69.8417 46.0748 68.5739 46.1333 67.2828 46.1333H66.5725C66.3208 46.1184 66.0916 46.1112 65.8844 46.1112C65.8861 46.1039 66.5197 44.0197 66.5281 43.9998H66.4837C65.4186 45.5853 64.1239 46.3778 62.6003 46.3778C60.7513 46.3778 59.8267 45.1778 59.8267 42.7773C59.8267 41.6811 59.982 40.6513 60.2927 39.6883C60.6033 38.7252 61.0655 37.8733 61.6795 37.1323C62.2933 36.3914 63.0588 35.8136 63.9762 35.3988C64.8934 34.9841 65.9436 34.7764 67.1273 34.7764ZM57.5413 34.7762C58.207 34.7762 58.8133 34.8206 59.3608 34.9097L58.7698 37.3314C58.6948 37.6375 58.3991 37.8417 58.0886 37.7903C57.8545 37.7517 57.6275 37.7323 57.4081 37.7323C56.7423 37.7323 56.4095 37.9178 56.4095 38.288C56.4095 38.4808 56.6313 38.8139 57.0752 39.2881C57.5484 39.7769 57.9184 40.2436 58.1848 40.6883C58.4511 41.1327 58.5842 41.6809 58.5842 42.3328C58.5842 42.8217 58.4767 43.3036 58.2625 43.7775C58.0477 44.2517 57.7188 44.6852 57.275 45.0777C56.8311 45.4705 56.2616 45.7816 55.5662 46.0111C54.8708 46.2408 54.0572 46.3556 53.1253 46.3556C52.7848 46.3556 52.4377 46.3369 52.0823 46.3C51.9597 46.2873 51.8395 46.2728 51.7217 46.2575C51.3736 46.2116 51.1411 45.8745 51.2116 45.5302L51.7497 42.8884C51.9566 42.963 52.2342 43.033 52.5819 43.0997C52.9291 43.1663 53.2214 43.1997 53.4583 43.1997C54.1614 43.1997 54.4572 42.9608 54.3448 42.4825C54.3098 42.3323 54.242 42.192 54.1464 42.0706C54.0344 41.9281 53.8714 41.7564 53.6581 41.5548C53.2287 41.1403 52.8923 40.7292 52.6481 40.3216C52.4391 39.9723 52.3197 39.5223 52.2897 38.9714C52.2548 38.3281 52.3644 37.6852 52.6458 37.1059C53.3997 35.5534 55.0309 34.7762 57.5413 34.7762ZM32.7664 34.9312C33.5611 35.0137 34.2147 35.1672 34.7269 35.3912C35.2392 35.6158 35.6311 35.887 35.9031 36.2058C36.1748 36.5242 36.352 36.863 36.4344 37.2214C36.5159 37.58 36.5381 37.9434 36.5002 38.3117C36.4242 39.0491 36.1963 39.6697 35.8173 40.1737C35.4381 40.6786 34.9328 41.0731 34.3009 41.3575C33.6694 41.6423 32.947 41.8317 32.1342 41.9266C31.3214 42.0211 30.4356 42.0267 29.4778 41.9422L29.4505 42.2077C29.4186 42.5169 29.4986 42.7486 29.6911 42.9025C29.8834 43.0566 30.2666 43.1633 30.8406 43.2228C31.9 43.3323 33.0338 43.2263 34.242 42.9042L33.9755 45.4873C33.9481 45.7525 33.7528 45.9736 33.4912 46.0231C32.8939 46.1359 32.2741 46.213 31.632 46.2539C30.8309 46.3052 30.0555 46.2919 29.3048 46.2142C27.7891 46.0572 26.7503 45.6036 26.1883 44.8528C25.6259 44.1022 25.4105 43.093 25.5414 41.8253C25.6661 40.617 25.9616 39.5528 26.4284 38.6327C26.8948 37.7128 27.4739 36.9645 28.1658 36.3881C28.857 35.8117 29.5981 35.4044 30.3889 35.1659C31.1791 34.9275 31.9717 34.8492 32.7664 34.9312ZM25.7217 34.7542C25.9286 34.7542 26.1506 34.7764 26.3873 34.8208L25.6322 38.1305C25.5663 38.4184 25.3041 38.6262 25.0097 38.6041C24.9661 38.6008 24.9223 38.5991 24.8784 38.5991C24.2128 38.5991 23.6023 39.0291 23.0478 39.8881C22.493 40.7477 22.0453 42.0662 21.7052 43.8441L21.3772 45.5906C21.3228 45.8797 21.0709 46.0887 20.7775 46.0887H17.3117L18.8427 38.1547V38.0878C18.5911 38.0434 18.3025 38.0028 17.9772 37.9655C17.8647 37.9528 17.7509 37.9405 17.6364 37.9286C17.283 37.8917 17.0348 37.5603 17.0997 37.2102L17.4667 35.2208C18.8278 35.0728 20.2406 34.9986 21.7052 34.9986H22.4375C22.6889 35.0136 22.9181 35.0209 23.1253 35.0209C23.1047 35.1352 22.6994 36.88 22.6695 36.9555H22.7139C23.2022 36.1111 23.4917 35.8098 24.002 35.3875C24.5125 34.9653 25.0855 34.7542 25.7217 34.7542ZM50.485 34.9986C50.8402 35.0134 51.1063 35.0208 51.2839 35.0208L49.2705 45.5923C49.2156 45.8805 48.9639 46.0889 48.6709 46.0889H45.2039L46.7348 38.1323V38.088C46.4831 38.0434 46.1948 38.0028 45.8695 37.9656C45.5438 37.9287 45.2109 37.8956 44.8708 37.8656L45.2758 35.6725C45.325 35.4048 45.5438 35.2002 45.8142 35.1744C47.0434 35.0575 48.3491 34.9986 49.7306 34.9986H50.485ZM66.4173 37.9545C66.0622 37.9545 65.7294 38.0805 65.4186 38.3323C65.1078 38.5844 64.8417 38.9141 64.6195 39.3214C64.3978 39.7291 64.2275 40.1697 64.1094 40.6437C63.9908 41.1181 63.9319 41.5698 63.9319 41.9994C63.9319 42.5773 64.072 42.8662 64.3534 42.8662C64.5603 42.8662 64.8006 42.733 65.0747 42.4662C65.3481 42.1995 65.6256 41.8439 65.9069 41.3992C66.1878 40.955 66.4317 40.477 66.6391 39.9659C66.8459 39.4547 66.9942 38.9769 67.083 38.5325L67.1717 38.0656C66.92 37.9917 66.6686 37.9545 66.4173 37.9545ZM30.8953 38.257C30.5711 38.5886 30.3012 39.0037 30.0864 39.5027C30.8236 39.5644 31.4197 39.5177 31.8744 39.3639C32.3284 39.2097 32.5797 38.9044 32.6269 38.4472C32.665 38.0791 32.4706 37.8725 32.0439 37.8283C31.6025 37.7828 31.2195 37.9256 30.8953 38.257ZM50.0413 29.5312C50.692 29.5312 51.2319 29.7462 51.6611 30.1758C52.09 30.6055 52.3047 31.1019 52.3047 31.665C52.3047 32.3909 52.0456 32.995 51.5281 33.4763C51.01 33.9577 50.4109 34.1986 49.7306 34.1986C49.0794 34.1986 48.5395 33.9837 48.1108 33.5539C47.6814 33.1245 47.4672 32.6133 47.4672 32.0205C47.4672 31.3094 47.7258 30.7167 48.2438 30.2423C48.7613 29.7684 49.3606 29.5312 50.0413 29.5312Z" fill="#00537F"/>
</g>
<defs>
<clipPath id="clip0_22116_4382">
<rect width="80" height="80" fill="white"/>
</clipPath>
</defs>
</svg>
