<svg width="80" height="80" viewBox="0 0 80 80" fill="none" xmlns="http://www.w3.org/2000/svg">
<g clip-path="url(#clip0_22116_4383)">
<rect width="80" height="80" fill="#171527"/>
<path d="M40.0208 80.0417C62.1123 80.0417 80.0417 62.1123 80.0417 40.0208C80.0417 17.9293 62.1123 0 40.0208 0C17.9293 0 0 17.9293 0 40.0208C0 62.1123 17.9293 80.0417 40.0208 80.0417Z" fill="#171527"/>
<path fill-rule="evenodd" clip-rule="evenodd" d="M40.0208 60.6717C51.4267 60.6717 60.6715 51.4269 60.6715 40.0209C60.6715 28.615 51.4267 19.3702 40.0208 19.3702C28.6149 19.3702 19.3701 28.615 19.3701 40.0209C19.3701 51.4269 28.6149 60.6717 40.0208 60.6717ZM66.9548 40.0209C66.9548 54.9087 54.9086 66.9549 40.0208 66.9549C25.1331 66.9549 13.0868 54.9087 13.0868 40.0209C13.0868 25.1332 25.1331 13.0869 40.0208 13.0869C54.9086 13.0869 66.9548 25.1332 66.9548 40.0209Z" fill="url(#paint0_linear_22116_4383)"/>
</g>
<defs>
<linearGradient id="paint0_linear_22116_4383" x1="40.0221" y1="13.0898" x2="40.0221" y2="66.9521" gradientUnits="userSpaceOnUse">
<stop stop-color="#00EE26"/>
<stop offset="1" stop-color="#FFC600"/>
</linearGradient>
<clipPath id="clip0_22116_4383">
<rect width="80" height="80" fill="white"/>
</clipPath>
</defs>
</svg>
