<svg width="80" height="80" viewBox="0 0 80 80" fill="none" xmlns="http://www.w3.org/2000/svg">
<g clip-path="url(#clip0_22116_4344)">
<rect width="80" height="80" fill="#FAFAFA"/>
<path d="M40.0156 100C73.1527 100 100.016 73.1371 100.016 40C100.016 6.86292 73.1527 -20 40.0156 -20C6.87854 -20 -19.9844 6.86292 -19.9844 40C-19.9844 73.1371 6.87854 100 40.0156 100Z" fill="#03FF60"/>
<path fill-rule="evenodd" clip-rule="evenodd" d="M66.7338 29.6281C66.4213 29.4719 66.1089 29.405 65.7518 29.405C65.7295 29.405 65.7295 29.405 65.7072 29.405C65.6626 29.405 65.6179 29.4273 65.5733 29.4273C65.5063 29.4273 65.4171 29.4496 65.3501 29.4496C65.2609 29.4719 65.1939 29.4719 65.1269 29.4942C65.06 29.5166 64.9707 29.5389 64.9038 29.5612C64.8815 29.5835 64.8145 29.5835 64.7922 29.5835L47.742 37.573L30.6249 23.5579C30.5356 23.491 30.4687 23.4463 30.3794 23.3794C30.3348 23.3571 30.2678 23.2901 30.2232 23.2678C30.2008 23.2678 30.2009 23.2455 30.2009 23.2455C30.1785 23.2232 30.1562 23.2232 30.1339 23.2232C30.0446 23.1785 29.9107 23.1339 29.7991 23.1116C29.7768 23.1116 29.7545 23.0893 29.7322 23.0893C29.5983 23.0669 29.4867 23.0446 29.3528 23.0223C29.3305 23.0223 29.3305 23.0223 29.3305 23.0223C29.2859 23.0223 29.2412 23 29.1966 23C29.1296 23 29.0627 23.0223 28.9957 23.0223C28.9511 23.0223 28.9065 23.0223 28.8395 23.0446C28.7502 23.067 28.661 23.067 28.5494 23.1116C28.4824 23.1339 28.4378 23.1339 28.3709 23.1785C28.3039 23.2009 28.237 23.2232 28.17 23.2678C28.0807 23.3124 27.9915 23.3571 27.9022 23.424C27.8799 23.4463 27.8576 23.4463 27.8129 23.491C27.5451 23.6918 27.322 23.9596 27.1657 24.2944L12.2357 54.6678C11.6777 55.8283 12.1464 57.212 13.2622 57.7476C13.5747 57.9038 13.9318 57.9707 14.2888 57.9707C14.3335 57.9707 14.3781 57.9484 14.4227 57.9484C14.579 57.9484 14.7352 57.9261 14.8914 57.8815C15.0253 57.8591 15.1592 57.7922 15.2931 57.7476L47.1395 42.8398L56.1109 50.1598C56.2448 50.2714 56.3787 50.383 56.5349 50.4499C56.5349 50.4499 56.5572 50.4499 56.5572 50.4722C56.5795 50.4945 56.6242 50.4945 56.6465 50.4945C56.7581 50.5392 56.892 50.5838 57.0036 50.6284C57.0482 50.6508 57.0928 50.6508 57.1375 50.6508C57.2491 50.6731 57.3606 50.6731 57.4722 50.6731C57.4945 50.6731 57.5169 50.6731 57.5392 50.6731C57.5615 50.6731 57.5838 50.6508 57.6061 50.6508C57.7623 50.6508 57.9186 50.6284 58.0748 50.5838C58.0971 50.5838 58.1194 50.5615 58.1641 50.5615C58.3203 50.5169 58.4542 50.4499 58.6104 50.3606C58.6997 50.316 58.7666 50.2714 58.8336 50.2044C58.8782 50.1821 58.9228 50.1375 58.9675 50.0928C59.1906 49.892 59.3915 49.6688 59.5254 49.3787L67.7604 32.6409C68.3183 31.5697 67.8719 30.1861 66.7338 29.6281ZM19.0424 51.0078L29.933 28.8694L43.1893 39.7154L19.0424 51.0078ZM60.8421 36.4125L56.6465 44.9153L51.5582 40.742L60.8421 36.4125Z" fill="black"/>
</g>
<defs>
<clipPath id="clip0_22116_4344">
<rect width="80" height="80" fill="white"/>
</clipPath>
</defs>
</svg>
