<svg width="80" height="80" viewBox="0 0 80 80" fill="none" xmlns="http://www.w3.org/2000/svg">
<rect width="80" height="80" fill="#11C76F"/>
<path d="M8 24.0002C8 15.1636 15.1636 8 24.0002 8H55.9998C64.8364 8 72 15.1636 72 24.0002V55.9998C72 64.8364 64.8364 72 55.9998 72H24.0002C15.1636 72 8 64.8364 8 55.9998V24.0002Z" fill="#11C76F"/>
<path fill-rule="evenodd" clip-rule="evenodd" d="M28.9402 24.8335H20.698V32.2132H28.4907C33.4333 32.2132 36.2411 34.6324 36.2411 39.0467C36.2411 43.5742 33.4333 46.0503 28.4907 46.0503H20.698V32.2132H12V64.5002H20.698V53.4311H28.9402C38.9379 53.4311 44.6667 47.9611 44.6667 38.736C44.6667 29.9642 38.9379 24.8335 28.9402 24.8335Z" fill="white"/>
<path fill-rule="evenodd" clip-rule="evenodd" d="M50.5 33H68V15.5H50.5V33ZM53.4199 30.0842H65.0874V18.4179H53.4199V30.0842ZM62.1642 27.1685H56.3306V21.3348H62.1642V27.1685Z" fill="white"/>
</svg>
