<svg width="80" height="80" viewBox="0 0 80 80" fill="none" xmlns="http://www.w3.org/2000/svg">
<g clip-path="url(#clip0_22116_4346)">
<rect width="80" height="80" fill="#FAFAFA"/>
<mask id="mask0_22116_4346" style="mask-type:luminance" maskUnits="userSpaceOnUse" x="0" y="0" width="80" height="80">
<path d="M80 0H0V80H80V0Z" fill="white"/>
</mask>
<g mask="url(#mask0_22116_4346)">
<path d="M32.0097 40.6943C30.2046 38.4817 24.2518 39.6395 19.6143 41.1206C19.6015 41.1258 19.5877 41.1279 19.574 41.1266C19.5603 41.1253 19.5472 41.1208 19.5356 41.1133C19.5241 41.1058 19.5145 41.0956 19.5078 41.0835C19.5011 41.0715 19.4974 41.0581 19.4971 41.0443C19.5041 40.8099 19.508 40.574 19.508 40.3348C19.5121 39.1562 19.4132 37.9794 19.2122 36.8181C19.2092 36.7986 19.2138 36.7787 19.2251 36.7626C19.2364 36.7464 19.2535 36.7353 19.2729 36.7315C23.1113 35.3313 30.8433 34.8981 32.1671 40.6306V40.6321C32.1891 40.7163 32.0641 40.7659 32.0089 40.6946M28.1233 47.1256C27.9968 47.2193 27.8307 47.0649 27.9393 46.9537C29.8082 45.0431 31.3427 42.0132 17.805 48.1768C17.7224 48.2146 17.6391 48.1281 17.6941 48.0604C18.4397 46.9946 19.106 45.276 19.4064 42.8399C19.4081 42.8249 19.4139 42.8106 19.4232 42.7987C19.4325 42.7867 19.4449 42.7776 19.4591 42.7723C27.9422 39.3632 37.5243 39.4892 28.1232 47.1251M16.7982 31.8813C16.7819 31.8733 16.7691 31.8597 16.7618 31.8431C16.7546 31.8265 16.7535 31.8078 16.7587 31.7904C16.7638 31.773 16.775 31.758 16.7901 31.7481C16.8053 31.7381 16.8234 31.7338 16.8414 31.7359C19.1894 31.7429 26.2591 31.5676 29.9039 36.2123C29.9535 36.2917 29.8402 36.3728 29.7671 36.3098C28.6674 35.3526 25.6903 33.7317 18.8296 35.1504C18.8073 35.1566 18.7836 35.1539 18.7633 35.1429C18.743 35.1319 18.7278 35.1134 18.721 35.0913C18.175 33.3451 17.4805 32.4013 16.7991 31.8813M31.8772 29.6743H16.461C15.82 29.6792 15.2073 29.9385 14.7575 30.3952C14.3078 30.8519 14.0578 31.4685 14.0627 32.1095V47.7578C14.0578 48.3987 14.3078 49.0153 14.7575 49.472C15.2073 49.9287 15.82 50.188 16.461 50.1929H31.8769C32.5179 50.188 33.1308 49.9288 33.5807 49.4721C34.0306 49.0154 34.2807 48.3988 34.276 47.7578V32.1096C34.2806 31.4686 34.0304 30.8521 33.5806 30.3954C33.1307 29.9388 32.5179 29.6795 31.8769 29.6745" fill="#2B56C0"/>
<path d="M37.3057 29.7148H40.8327C42.6654 29.7148 43.7572 30.8444 43.7572 32.4387C43.7572 34.0331 42.6654 35.1633 40.8327 35.1633H38.9749V38.5023H37.3057V29.7148ZM40.7579 33.7687C41.7371 33.7687 42.1383 33.1411 42.1383 32.4378C42.1383 31.7345 41.7364 31.1069 40.7579 31.1069H38.9755V33.7678H40.7579V33.7687ZM47.0968 32.0745C49.0175 32.0745 50.398 33.455 50.398 35.338C50.398 37.2209 49.0177 38.6008 47.0969 38.6008C45.1635 38.6008 43.7832 37.2203 43.7832 35.3373C43.7832 33.4544 45.1633 32.0745 47.0968 32.0745ZM47.0968 37.2714C48.1389 37.2714 48.8413 36.4809 48.8413 35.338C48.8413 34.195 48.1382 33.4045 47.0968 33.4045C46.0427 33.4045 45.3396 34.195 45.3396 35.338C45.3396 36.4809 46.0419 37.2714 47.0968 37.2714ZM51.1004 34.4342C51.1004 32.9909 51.916 32.1752 53.3594 32.1752H54.7775V33.4683H53.5979C52.9827 33.4683 52.6438 33.8198 52.6438 34.435V38.5016H51.0997V34.4342H51.1004ZM55.5563 30.267H57.1003V32.1753H58.8575V33.4684H57.1005V36.2302C57.1005 36.8708 57.4396 37.1969 58.0169 37.1969H58.8577V38.5027H57.8407C56.4602 38.5027 55.5564 37.6995 55.5564 36.2931L55.5563 30.267ZM62.6361 32.0745C64.5569 32.0745 65.9374 33.455 65.9374 35.338C65.9374 37.2209 64.5571 38.6008 62.6363 38.6008C60.7029 38.6008 59.3225 37.2203 59.3225 35.3373C59.3225 33.4544 60.703 32.0745 62.6363 32.0745H62.6361ZM62.6361 37.2714C63.6783 37.2714 64.3808 36.4809 64.3808 35.338C64.3808 34.195 63.6777 33.4045 62.6361 33.4045C61.5821 33.4045 60.8789 34.195 60.8789 35.338C60.8789 36.4809 61.5816 37.2714 62.6363 37.2714H62.6361Z" fill="#2B56C0"/>
<path d="M37.2961 41.2188H40.7822C42.4285 41.2188 43.5997 42.0423 43.5997 43.5344C43.5956 43.9017 43.4917 44.261 43.299 44.5737C43.1063 44.8864 42.8322 45.1408 42.506 45.3097C42.9714 45.4687 43.373 45.7737 43.6512 46.1792C43.9294 46.5848 44.0693 47.0693 44.05 47.5608C44.05 49.2327 42.8025 50.2233 40.9116 50.2233H37.2969V41.2188H37.2961ZM40.6665 44.7434C41.5671 44.7434 42.0169 44.3572 42.0169 43.6627C42.0169 42.9681 41.5671 42.5819 40.6404 42.5819H38.9685V44.7434H40.6665ZM40.731 48.7434C41.8763 48.7434 42.4158 48.3059 42.4158 47.47C42.4158 46.6464 41.8755 46.1839 40.731 46.1839H38.9683V48.7434H40.731Z" fill="black"/>
<path d="M47.5743 44.8205C46.7382 44.8205 46.2364 45.3483 46.2104 45.9264H44.7954C44.8724 44.6403 45.9659 43.6367 47.6515 43.6367C49.2978 43.6367 50.4556 44.5884 50.4556 46.0555V50.2234H48.899V49.2583C48.6292 49.9017 47.8834 50.3256 46.957 50.3256C45.6709 50.3256 44.7964 49.502 44.7964 48.3836C44.7964 47.1227 45.774 46.3384 47.2276 46.3384H48.8995V46.0695C48.899 45.2712 48.4104 44.8205 47.5743 44.8205ZM47.3296 49.1561C48.32 49.1561 48.8989 48.4616 48.8989 47.4842V47.4072H47.5223C46.7759 47.4072 46.3259 47.7548 46.3259 48.3203C46.326 48.8217 46.7375 49.1561 47.3296 49.1561Z" fill="black"/>
<path d="M51.5747 43.7396H53.1572V44.7431C53.5175 44.036 54.251 43.6372 55.177 43.6372C56.6431 43.6372 57.5958 44.6921 57.5958 46.21V50.2239H56.0132V46.5444C56.0132 45.6572 55.4728 45.0397 54.6627 45.0397C53.7755 45.0397 53.158 45.7342 53.158 46.686V50.2231H51.5755V43.7396H51.5747Z" fill="black"/>
<path d="M58.9062 50.2239V40.9614H60.4891V46.1072L62.9714 43.7405H64.978L62.3406 46.2874L65.1967 50.2233H63.2798L61.26 47.3288L60.4884 48.0752V50.2239H58.9062Z" fill="black"/>
</g>
</g>
<defs>
<clipPath id="clip0_22116_4346">
<rect width="80" height="80" fill="white"/>
</clipPath>
</defs>
</svg>
