<svg width="80" height="80" viewBox="0 0 80 80" fill="none" xmlns="http://www.w3.org/2000/svg">
<rect width="80" height="80" fill="#FAFAFA"/>
<path fill-rule="evenodd" clip-rule="evenodd" d="M49.897 27.4233C48.7339 26.2889 47.3181 25.5492 45.5987 25.1053C45.2953 24.9573 45.0931 24.7108 45.1942 24.2669L45.447 22.8858C45.5987 22.0473 45.0425 21.4062 44.1829 21.4062H42.2614C41.4017 21.4062 40.5926 22.0967 40.4409 22.8858L40.1881 24.1189C40.087 24.6614 39.7329 24.8586 39.2779 25.0066C37.2553 25.3519 35.4348 26.1409 33.9178 27.2753C31.6423 28.9522 30.3275 31.073 29.9229 33.6377C29.5184 35.9558 30.0746 37.8298 31.5917 39.2109C33.1087 40.5919 35.4854 41.6275 38.7217 42.3673C40.8454 42.8606 42.2614 43.4523 42.9187 44.0936C43.576 44.7347 43.8289 45.6225 43.6771 46.6089C43.475 47.6939 42.9187 48.5817 41.9579 49.223C40.9971 49.8641 39.7329 50.2094 38.2665 50.2094C36.7495 50.2094 35.5359 49.8147 34.5751 49.0256C33.9178 48.4831 33.5639 47.6939 33.4626 46.7075C33.3615 46.3623 33.2098 45.3759 32.1479 45.3759H28.4061C27.2429 45.3759 27.0407 46.313 27.0407 46.7075C26.9395 48.7297 27.6475 50.5545 29.2151 52.2314C30.2264 53.3164 31.4906 54.1056 33.0076 54.5988H32.9064C33.7156 54.8455 34.4234 54.9441 34.2212 55.7331L33.9684 57.1142C33.8167 57.9527 34.3729 58.5938 35.2325 58.5938H37.154C38.0137 58.5938 38.8228 57.9033 38.9745 57.1142L39.2273 55.8811C39.3284 55.2892 39.7329 55.092 40.2387 54.9934C42.4131 54.6481 44.3346 53.9577 45.9528 52.8233C48.2789 51.245 49.6946 49.075 50.0992 46.313C50.5037 43.9456 49.9475 42.0222 48.481 40.6411C47.0146 39.2602 44.5368 38.1752 41.0982 37.4353C38.9239 36.9422 37.5586 36.4489 36.9518 35.857C36.345 35.2653 36.0921 34.4269 36.2945 33.3911C36.4461 32.3553 37.0023 31.5169 37.9126 30.777C38.8228 30.0373 39.9353 29.692 41.3511 29.692C42.8176 29.692 43.8795 30.1359 44.5875 30.9744C45.0425 31.5169 45.1942 32.0594 45.2953 32.602C45.5482 33.687 46.2056 34.1309 46.9136 34.1309H50.3015C51.6668 34.1309 51.9196 33.2925 51.869 32.4541C51.9196 30.6292 51.1611 28.6564 49.897 27.4233Z" fill="#FD8832"/>
<path fill-rule="evenodd" clip-rule="evenodd" d="M68.1404 14.1042C68.9451 13.3112 69.6995 13.9555 69.4982 14.6989L63.564 44.0392C63.3628 45.1295 62.9604 46.9137 62.7593 48.0042C62.7593 48.0042 61.8112 52.6986 60.8223 57.66L60.6893 58.3278L60.6006 58.7734C60.2101 60.7339 59.8233 62.695 59.4401 64.6569C58.5851 68.8695 56.6239 71.8433 53.3046 73.7266C51.4942 74.7673 49.2311 75.3125 47.0686 75.3125H14.8823C13.7761 75.3125 13.5245 74.5195 14.3292 73.7266L23.0295 65.202C23.8342 64.4091 25.4434 63.7647 26.5498 63.7647H32.4842C33.6409 63.7647 33.8923 64.4091 33.0876 65.202L31.0761 67.1844C29.7617 68.5259 29.6742 68.6153 30.0362 68.6213L30.0911 68.6217H44.8557C45.9622 68.6217 47.7726 68.3244 48.8287 67.9278C48.8287 67.9278 52.2486 66.6888 52.852 63.5664C53.6567 59.5023 61.3009 22.4305 61.3009 22.4305C61.502 21.3402 62.357 19.8038 63.1617 19.0108L68.1404 14.1042ZM65.2739 4.6875C66.3803 4.6875 66.6317 5.48047 65.827 6.27344L57.1267 14.7484C56.322 15.5414 54.7128 16.1858 53.6064 16.1858H47.672C46.5153 16.1858 46.2639 15.5414 47.0686 14.7484L49.0801 12.7659C50.3945 11.4245 50.482 11.3352 50.12 11.3292L50.0651 11.3287H35.3507C34.2443 11.3287 32.4339 11.6261 31.3778 12.0225C31.3778 12.0225 27.9579 13.2616 27.3545 16.3841C26.5498 20.448 18.9056 57.52 18.9056 57.52C18.7045 58.6103 17.8495 60.1467 17.0448 60.9397L12.0157 65.8462C11.2111 66.6392 10.4567 65.995 10.6579 65.2516L16.5922 35.9608C16.7934 34.8705 17.1957 33.0862 17.3968 31.9958C17.3968 31.9958 18.3736 27.1603 19.3781 22.1177L19.4668 21.6722L19.5556 21.2266L19.6882 20.5588C20.034 18.8208 20.3766 17.0823 20.7161 15.3431C21.5711 11.1306 23.5323 8.15688 26.8515 6.27344C28.662 5.23281 30.9251 4.6875 33.0876 4.6875H65.2739Z" fill="#42535C"/>
</svg>
