<svg width="80" height="80" viewBox="0 0 80 80" fill="none" xmlns="http://www.w3.org/2000/svg">
<rect width="80" height="80" fill="#00003C"/>
<path d="M52.323 53.0215C50.3093 53.0215 48.9867 51.8693 48.9867 50.1408C48.9867 48.7004 49.9651 47.5482 51.1159 47.5482C51.5757 47.5482 51.9784 47.7204 51.9784 48.1808C51.9784 48.4689 51.8632 48.7004 52.1508 48.7004C52.323 48.7004 52.497 48.5282 52.497 48.065C52.497 47.497 51.9784 47.0284 51.2311 47.0284H51.0571C51.1347 46.8669 51.1746 46.6892 51.1724 46.5095C51.1748 46.4031 51.1557 46.2972 51.1163 46.1984C51.0768 46.0996 51.0175 46.0099 50.9423 45.9345C50.8671 45.8594 50.7774 45.8 50.6788 45.7604C50.58 45.7207 50.4743 45.7014 50.368 45.7038C49.9651 45.7038 49.5618 45.9353 49.5618 46.223C49.5572 46.2581 49.5647 46.2938 49.5836 46.3238C49.6024 46.3539 49.631 46.3765 49.6647 46.3876C49.6871 46.3952 49.7111 46.3972 49.7347 46.3936C49.9063 46.3936 49.9651 46.223 50.2527 46.223C50.3069 46.2164 50.362 46.2224 50.4136 46.2402C50.4654 46.2581 50.5124 46.2875 50.5509 46.3262C50.5896 46.3648 50.6189 46.4118 50.6368 46.4636C50.6546 46.5152 50.6604 46.5704 50.6538 46.6247C50.6538 47.0284 50.3093 47.1933 50.0216 47.3732C49.5409 47.6555 49.1436 48.0606 48.8708 48.547C48.5978 49.0332 48.459 49.5832 48.4683 50.1408C48.4683 51.7534 49.39 52.7937 50.7126 53.251L49.8498 54.5778C48.6992 54.5778 48.1219 55.4435 47.087 57.2863C47.0393 57.0502 46.9088 56.8391 46.719 56.6909C46.5291 56.5427 46.2926 56.4674 46.0522 56.4785C45.4178 56.4785 45.0151 56.9389 45.0151 57.5743C45.0083 57.6426 45.0286 57.711 45.0716 57.7644C45.1149 57.8179 45.1772 57.8522 45.2456 57.8602C45.2839 57.8628 45.3222 57.8572 45.3583 57.8437C45.3942 57.8304 45.4269 57.8094 45.4541 57.7824C45.4815 57.7552 45.5027 57.7227 45.5164 57.6868C45.5301 57.6509 45.5358 57.6126 45.5336 57.5743C45.5283 57.5025 45.5376 57.4303 45.561 57.362C45.5846 57.294 45.6217 57.2315 45.6703 57.1781C45.7189 57.125 45.7778 57.0821 45.8435 57.0526C45.909 57.0228 45.98 57.0069 46.0522 57.0056C46.4549 57.0056 46.6196 57.2938 46.6196 57.6384C46.6321 58.0324 46.5101 58.4188 46.2734 58.734C45.0663 60.6919 43.3969 61.6715 41.9588 61.6715C40.6912 61.6715 39.9439 60.923 39.9439 60.1745C39.9439 59.4825 40.3466 58.9064 41.037 58.9064C41.4972 58.9064 41.7849 59.1945 41.7849 59.5962C41.7849 59.943 41.4972 59.943 41.4972 60.1158C41.4972 60.231 41.6125 60.2882 41.7283 60.2882C42.0745 60.2882 42.2959 59.8864 42.2959 59.4825C42.2959 58.8471 41.7773 58.3869 41.0298 58.3869C40.7267 58.3855 40.4295 58.472 40.1744 58.6358C39.9193 58.7997 39.7171 59.034 39.5921 59.3103C39.4664 59.0344 39.2638 58.8007 39.0087 58.6368C38.7536 58.4732 38.4566 58.3863 38.1535 58.3869C37.3969 58.3869 36.8858 58.8477 36.8858 59.4825C36.8858 59.8864 37.1164 60.2882 37.4534 60.2882C37.5665 60.2882 37.6823 60.231 37.6823 60.1158C37.6823 59.9436 37.3947 59.9436 37.3947 59.5962C37.3947 59.1945 37.6823 58.9064 38.1519 58.9064C38.8405 58.9064 39.2438 59.475 39.2438 60.1745C39.2438 60.923 38.4959 61.6715 37.23 61.6715C35.7924 61.6715 34.123 60.6915 32.9137 58.734C32.6828 58.4135 32.5675 58.0238 32.5867 57.6293C32.5867 57.2841 32.7591 56.996 33.1543 56.996C33.2263 56.9972 33.2973 57.0131 33.363 57.0429C33.4287 57.0726 33.4876 57.1153 33.5362 57.1684C33.5848 57.2218 33.6219 57.2843 33.6453 57.3525C33.6689 57.4206 33.6782 57.4928 33.6729 57.5646C33.6707 57.6027 33.6764 57.6408 33.6899 57.6765C33.7034 57.7122 33.7245 57.7445 33.7514 57.7715C33.7784 57.7987 33.8108 57.8195 33.8465 57.8332C33.882 57.8469 33.9203 57.8526 33.9583 57.8505C34.0268 57.8429 34.0893 57.8086 34.1325 57.755C34.1758 57.7015 34.1962 57.633 34.1893 57.5646C34.1893 56.9292 33.7866 56.4687 33.1543 56.4687C32.9135 56.457 32.6762 56.532 32.486 56.6802C32.2957 56.8284 32.1648 57.0401 32.1174 57.2765C31.09 55.4419 30.5143 54.5778 29.3696 54.5778L28.5069 53.251C29.8314 52.7906 30.7511 51.754 30.7511 50.1408C30.7603 49.5832 30.621 49.0332 30.348 48.547C30.0751 48.0608 29.6779 47.6557 29.1972 47.3732C28.9098 47.2008 28.5656 47.0284 28.5656 46.6247C28.5592 46.5704 28.5654 46.5152 28.5834 46.4634C28.6015 46.4118 28.6308 46.3648 28.6697 46.3262C28.7084 46.2877 28.7554 46.2581 28.8072 46.2402C28.859 46.2224 28.9139 46.2164 28.9683 46.223C29.2565 46.223 29.3131 46.3936 29.4853 46.3936C29.5087 46.3972 29.5325 46.395 29.5549 46.3878C29.5773 46.3805 29.5977 46.368 29.6146 46.3515C29.6315 46.3349 29.6444 46.3148 29.6521 46.2924C29.6598 46.2702 29.6622 46.2464 29.6592 46.223C29.6592 45.9349 29.2565 45.7038 28.8532 45.7038C28.6925 45.6995 28.5346 45.7445 28.4003 45.8328C28.2662 45.9211 28.1625 46.0484 28.1031 46.1976C28.0637 46.2968 28.0444 46.4023 28.047 46.5095C28.0448 46.6892 28.0847 46.8669 28.1623 47.0284H27.9901C27.2335 47.0284 26.7246 47.4894 26.7246 48.0655C26.7246 48.5276 26.897 48.7004 27.0692 48.7004C27.3562 48.7004 27.241 48.4689 27.241 48.1808C27.241 47.7204 27.6437 47.5482 28.1057 47.5482C29.2565 47.5482 30.2344 48.7004 30.2344 50.1408C30.2344 51.8693 28.9098 53.0215 26.8964 53.0215C24.5369 53.0215 22.7524 51.2932 22.7524 48.8728C22.7524 46.5089 24.1342 44.8925 25.6871 43.458L27.0117 42.1899C28.6808 40.6338 29.37 39.021 29.37 37.006C29.37 34.8151 28.0454 32.3953 25.2863 31.186C25.8539 31.0136 26.206 30.4277 26.206 29.7455C26.206 29.2851 26.0338 28.9986 26.0338 28.6524C26.0338 27.9599 26.4366 27.5566 27.0121 27.5566C27.2336 27.5494 27.4489 27.6304 27.6108 27.782C27.7725 27.9333 27.8675 28.1428 27.8748 28.3644C27.8786 28.4487 27.8649 28.5328 27.8345 28.6116C27.804 28.6901 27.7576 28.7618 27.6979 28.8215C27.6381 28.881 27.5667 28.9276 27.4882 28.9581C27.4094 28.9887 27.3253 29.0026 27.241 28.9986C27.0686 28.9986 26.9535 28.9986 26.9535 29.171C26.9535 29.3432 27.1273 29.4003 27.3562 29.4003C27.6048 29.4089 27.8478 29.3253 28.0387 29.1659C28.2297 29.0066 28.3551 28.7822 28.3912 28.5362C28.515 28.6082 28.6539 28.6481 28.7961 28.6518C28.8877 28.6556 28.9794 28.6403 29.0649 28.6068C29.1504 28.5733 29.228 28.5225 29.2926 28.4574C29.3575 28.3924 29.4081 28.3146 29.4412 28.2289C29.4744 28.1432 29.4894 28.0517 29.4853 27.9599C29.4853 27.8448 29.4281 27.6718 29.2565 27.6718C29.1407 27.6718 29.0841 27.7877 29.0841 27.9014C29.0867 27.9399 29.081 27.9785 29.0673 28.0147C29.0538 28.051 29.0328 28.0839 29.0054 28.1113C28.9782 28.1386 28.9455 28.1601 28.9094 28.174C28.8733 28.1876 28.8346 28.1938 28.7961 28.1916C28.6804 28.1801 28.5703 28.1361 28.4785 28.0646C28.3868 27.9932 28.3174 27.897 28.2781 27.7877C28.1518 27.5617 27.9685 27.3727 27.7463 27.2398C27.5241 27.1067 27.2709 27.0343 27.0121 27.0295C26.6663 27.0235 26.3298 27.143 26.0652 27.3656C25.8004 27.5883 25.6252 27.8992 25.5718 28.241C25.1772 27.8399 24.7319 27.4919 24.2472 27.2061C24.7071 26.9154 25.1104 26.6865 25.5718 26.3391C26.2999 25.789 26.9746 25.1719 27.5872 24.4956L30.7511 21.0386C33.5136 17.9855 35.2927 17.237 37.0243 17.237C38.5207 17.237 39.268 17.9855 39.268 18.8497C39.268 19.4847 38.9978 19.9547 38.5659 20.1858C38.3037 19.9124 38.1279 19.5678 38.0609 19.1949C38.0021 18.9084 37.9456 18.9084 37.8869 18.9084C37.7712 18.9084 37.7712 19.0215 37.7712 19.1379C37.7601 19.5589 37.8678 19.9747 38.0819 20.3375C38.0194 20.3375 37.9547 20.3482 37.8922 20.3482C37.3247 20.3482 36.9725 20.0586 36.9725 19.714C36.97 19.6607 36.9789 19.6075 36.9989 19.5581C37.019 19.5085 37.0495 19.4641 37.0884 19.4276C37.2015 19.3117 37.1449 19.253 37.0884 19.253C36.8573 19.253 36.6264 19.5412 36.6264 19.8862C36.6264 20.2901 36.9725 20.8662 37.951 20.8662C38.135 20.8662 38.3182 20.8388 38.4943 20.7845C38.8199 21.0255 39.214 21.1556 39.6191 21.1556C40.0242 21.1556 40.4184 21.0255 40.7439 20.7845C40.9205 20.8388 41.1048 20.8662 41.2889 20.8662C42.2657 20.8662 42.6135 20.2977 42.6135 19.8862C42.6135 19.5416 42.383 19.253 42.1536 19.253C42.0971 19.253 42.0384 19.3123 42.1536 19.4276C42.1917 19.4647 42.2213 19.5093 42.2409 19.5587C42.2606 19.6081 42.2695 19.6609 42.2673 19.714C42.2673 20.0586 41.9227 20.3488 41.3476 20.3488C41.2814 20.3488 41.2151 20.3488 41.1586 20.3375C41.3724 19.9747 41.4799 19.5589 41.4688 19.1379C41.4688 19.0221 41.4688 18.9084 41.3536 18.9084C41.2964 18.9084 41.2377 18.9084 41.1812 19.1945C41.1125 19.5668 40.9372 19.9112 40.6761 20.1858C40.2448 19.9541 39.9719 19.4847 39.9719 18.8497C39.9719 17.9855 40.7197 17.2364 42.2161 17.2364C43.9418 17.2364 45.7269 17.9849 48.4891 21.0386L51.6533 24.4956C52.252 25.1854 52.9281 25.8041 53.668 26.3397C54.1279 26.6865 54.5312 26.9083 54.9928 27.2057C54.5082 27.4909 54.0628 27.8393 53.668 28.2406C53.6139 27.8994 53.4383 27.5891 53.1739 27.3667C52.9094 27.1444 52.5738 27.0245 52.2282 27.0295C51.9693 27.0341 51.7162 27.1063 51.494 27.2394C51.2718 27.3725 51.0885 27.5615 50.9623 27.7877C50.923 27.8968 50.8536 27.9928 50.7622 28.0642C50.6707 28.1357 50.561 28.1797 50.4453 28.1916C50.4069 28.1938 50.3682 28.1878 50.3321 28.1742C50.296 28.1603 50.2632 28.1388 50.236 28.1115C50.2089 28.0841 50.1876 28.051 50.1744 28.0148C50.1609 27.9785 50.1553 27.9399 50.1579 27.9014C50.1579 27.7883 50.0992 27.6718 49.9855 27.6718C49.8117 27.6718 49.7552 27.8442 49.7552 27.9599C49.7514 28.0517 49.7667 28.1432 49.8 28.2287C49.8333 28.3142 49.8841 28.392 49.949 28.4568C50.0139 28.5219 50.0914 28.5727 50.1767 28.6062C50.2622 28.6399 50.3537 28.6554 50.4453 28.6518C50.5876 28.6481 50.7264 28.6082 50.8492 28.5362C50.8859 28.7818 51.0115 29.0056 51.2022 29.1649C51.3928 29.3242 51.6352 29.4079 51.8836 29.4003C52.1151 29.4003 52.2869 29.3438 52.2869 29.1716C52.2869 28.9992 52.1712 28.9992 51.9995 28.9992C51.9136 29.0099 51.8263 29.001 51.7445 28.9728C51.6628 28.9447 51.5884 28.898 51.5273 28.8367C51.4664 28.7752 51.4202 28.7008 51.3924 28.6189C51.3646 28.5368 51.3561 28.4497 51.3672 28.3638C51.3754 28.1428 51.4702 27.9341 51.6315 27.7827C51.7927 27.6314 52.0072 27.55 52.2282 27.5562C52.8055 27.5562 53.2082 27.9599 53.2082 28.6518C53.2082 28.9986 53.0344 29.2851 53.0344 29.7455C53.0344 30.4375 53.3806 31.0136 53.9557 31.186C51.1934 32.3953 49.8704 34.8151 49.8704 37.0066C49.8704 39.021 50.5612 40.6338 52.2282 42.1899L53.553 43.458C55.1063 44.8984 56.4874 46.5094 56.4874 48.8728C56.4874 51.2932 54.703 53.0215 52.3434 53.0215H52.323ZM39.6277 63.7354C39.2982 63.0937 38.8921 62.4943 38.4183 61.9504C38.9432 61.7474 39.3741 61.357 39.6277 60.8545C39.8808 61.3566 40.3109 61.747 40.835 61.9504C40.3621 62.4945 39.9568 63.0939 39.6277 63.7354ZM40.2087 20.5232C40.0258 20.6057 39.8276 20.6484 39.6269 20.6484C39.4263 20.6484 39.2279 20.6057 39.0452 20.5232C39.3065 20.3213 39.5078 20.0519 39.6277 19.7442C39.7471 20.0519 39.9478 20.3211 40.2087 20.5232ZM57.4093 46.397C57.2581 46.389 57.1077 46.4226 56.9742 46.494C56.8407 46.5656 56.7294 46.6721 56.6523 46.8023C56.1924 45.7657 55.7326 44.7857 53.7176 42.9416C53.9789 43.0213 54.2507 43.06 54.5236 43.0574C55.1575 43.0574 55.8484 42.8829 56.2496 42.4887C56.3019 42.6761 56.4156 42.8404 56.5723 42.9557C56.729 43.0707 56.9199 43.13 57.1143 43.1241C57.7459 43.1241 57.9769 42.7202 57.9769 42.2594C57.9769 42.0854 57.9181 41.9126 57.7459 41.9126C57.4014 41.9126 57.6894 42.6045 57.1143 42.6045C57.0564 42.6039 56.999 42.5912 56.9465 42.567C56.8937 42.5426 56.8467 42.5075 56.8086 42.4639C56.7705 42.4202 56.7421 42.3689 56.7253 42.3133C56.7084 42.258 56.7036 42.1994 56.711 42.1419C56.711 41.856 56.8832 41.5093 56.8832 41.1054C56.901 40.7162 56.7852 40.3325 56.5551 40.018C56.3247 39.7036 55.9938 39.4775 55.6173 39.3769C55.4423 39.343 55.2844 39.2503 55.1694 39.1142C55.0543 38.9779 54.9894 38.8067 54.9853 38.6286C54.9853 38.1676 55.3299 38.1104 55.5526 38.1104C55.7762 38.1104 55.956 38.1676 55.956 37.9954C55.956 37.823 55.7838 37.7071 55.4392 37.7071C55.0363 37.7071 54.4614 37.9954 54.4614 38.628C54.4574 38.7571 54.4808 38.8857 54.5304 39.0049C54.58 39.1241 54.6546 39.2317 54.7488 39.32C54.4762 39.367 54.2289 39.5084 54.0499 39.7195C53.8712 39.9306 53.7722 40.1978 53.7704 40.4743C53.7704 40.876 53.8835 41.2778 54.1737 41.2778C54.5183 41.2778 54.2302 40.9897 54.2302 40.5293C54.2302 40.0119 54.6901 39.7824 55.1515 39.7824C55.7838 39.7824 56.3589 40.3511 56.3589 41.1091C56.3589 41.9735 55.6685 42.5496 54.5744 42.5496C54.1394 42.5698 53.7057 42.4911 53.3058 42.3191C52.9059 42.1471 52.5504 41.8864 52.2659 41.5567C51.0572 40.2299 50.3737 39.0797 50.3737 37.0078C50.3737 34.3543 52.2659 32.0517 55.0343 31.3028C55.334 31.2167 55.5977 31.0348 55.7846 30.785C55.9716 30.5351 56.0716 30.231 56.0696 29.9189C56.0696 29.3507 55.725 28.8845 55.1499 28.8845C54.919 28.8845 54.7466 28.9395 54.7466 29.1139C54.7466 29.2885 54.919 29.2863 55.0343 29.2863C55.186 29.3033 55.3251 29.3791 55.4217 29.4975C55.5183 29.6158 55.5647 29.7673 55.5511 29.9195C55.5509 30.1091 55.4925 30.2942 55.3836 30.4498C55.2749 30.6051 55.121 30.7233 54.9426 30.7886C54.8244 30.8317 54.6984 30.8499 54.5726 30.8424C53.9406 30.8424 53.5379 30.3819 53.5379 29.7471C53.5379 28.5378 54.9777 27.7306 56.0696 27.2148C55.0912 26.7522 54.745 26.5794 53.9977 26.0033C53.9212 25.9303 53.8613 25.8418 53.8218 25.744C53.7823 25.646 53.7642 25.5406 53.7688 25.4351C53.7688 25.1471 53.9412 24.9156 54.1715 24.9156C54.21 24.9134 54.2485 24.9195 54.2844 24.9332C54.3203 24.9469 54.3528 24.9681 54.38 24.9955C54.4072 25.0227 54.4282 25.0554 54.4419 25.0913C54.4554 25.1272 54.4614 25.1657 54.4592 25.2042C54.4592 25.3764 54.3439 25.3764 54.3439 25.4922C54.3403 25.5157 54.3425 25.5395 54.3501 25.5621C54.3574 25.5845 54.3701 25.6049 54.3868 25.6216C54.4034 25.6385 54.4239 25.6509 54.4465 25.6585C54.4689 25.6658 54.4927 25.668 54.5161 25.6644C54.6314 25.6644 54.919 25.551 54.919 25.0959C54.9206 24.9999 54.902 24.9044 54.8643 24.816C54.8264 24.7277 54.7704 24.6481 54.7 24.5829C54.6294 24.5176 54.5459 24.4678 54.4548 24.4371C54.3638 24.4063 54.2673 24.395 54.1715 24.4039C54.0456 24.4039 53.921 24.4297 53.8051 24.4797C53.6895 24.5297 53.5853 24.6029 53.499 24.6948C53.4127 24.7866 53.3461 24.8951 53.3032 25.0136C53.2606 25.1322 53.2425 25.2582 53.2502 25.3839C52.7999 25.0116 52.3768 24.6075 51.9844 24.1746L50.1428 22.1581C49.6242 21.5895 49.9123 20.4889 50.6598 20.4889C50.7316 20.4835 50.8036 20.4931 50.8717 20.5167C50.9397 20.5401 51.0022 20.5774 51.0554 20.626C51.1085 20.6746 51.1512 20.7335 51.1807 20.7992C51.2103 20.8648 51.2262 20.9358 51.2274 21.0079C51.2274 21.5248 50.7088 21.2939 50.7088 21.5766C50.7082 21.6064 50.714 21.6359 50.7257 21.6633C50.7376 21.6907 50.755 21.7153 50.777 21.7353C50.7991 21.7554 50.825 21.7704 50.8534 21.7798C50.8818 21.7889 50.9117 21.7921 50.9413 21.7887C51.1091 21.7911 51.2734 21.7405 51.4107 21.6441C51.5479 21.5476 51.6513 21.4104 51.706 21.2519C51.7425 21.1469 51.7566 21.0354 51.7475 20.9245C51.7316 20.65 51.6077 20.3931 51.4027 20.2098C51.198 20.0265 50.9288 19.9318 50.6544 19.9465C49.8968 19.9465 49.39 20.5153 49.39 21.3304L48.8129 20.695C46.2809 17.9296 44.2106 16.7147 42.1897 16.7147C41.5383 16.704 40.8979 16.8847 40.3482 17.2345C40.075 16.9067 39.8254 16.5604 39.6013 16.1973C39.3739 16.5606 39.121 16.9071 38.8443 17.2345C38.2945 16.8847 37.6542 16.704 37.0027 16.7147C34.9895 16.7147 32.9174 17.9262 30.3798 20.695L29.8126 21.3304C29.8126 20.5228 29.2942 19.9465 28.5467 19.9465C28.4106 19.9388 28.2744 19.958 28.1458 20.0029C28.0173 20.0479 27.8986 20.1177 27.797 20.2086C27.6955 20.2994 27.6128 20.4093 27.5538 20.5323C27.4947 20.6551 27.4606 20.7884 27.4531 20.9245C27.4445 21.0352 27.459 21.1465 27.4957 21.2515C27.5324 21.3562 27.5905 21.4524 27.6663 21.5336C27.7421 21.6149 27.834 21.6796 27.9359 21.7234C28.0381 21.7673 28.1482 21.7895 28.2593 21.7887C28.29 21.7919 28.3214 21.7883 28.3505 21.7778C28.3799 21.7675 28.4065 21.7506 28.4283 21.7286C28.4503 21.7066 28.467 21.68 28.4773 21.6506C28.4878 21.6214 28.4914 21.5901 28.488 21.5594C28.488 21.2713 27.9712 21.5022 27.9712 20.9906C27.9728 20.8821 28.0079 20.7767 28.0714 20.6887C28.1351 20.6008 28.224 20.5343 28.3265 20.4986C28.3948 20.475 28.4672 20.4659 28.5392 20.4716C29.2867 20.4716 29.5741 21.5647 29.0572 22.1408L27.2146 24.1585C26.822 24.5912 26.3991 24.9951 25.9487 25.3673C25.9598 25.178 25.9124 24.9899 25.8134 24.8285C25.7143 24.6668 25.5679 24.5396 25.3941 24.4638C25.2788 24.4138 25.1546 24.3881 25.029 24.3879C24.9324 24.377 24.8348 24.3867 24.7424 24.4166C24.6499 24.4466 24.565 24.496 24.4934 24.5614C24.4216 24.6271 24.3649 24.7071 24.3266 24.7963C24.2885 24.8856 24.2698 24.9822 24.2718 25.0792C24.2718 25.5422 24.5595 25.6478 24.6751 25.6478C24.6987 25.6513 24.7226 25.6494 24.7452 25.642C24.7678 25.6347 24.7882 25.622 24.8049 25.6053C24.8217 25.5885 24.8342 25.568 24.8418 25.5454C24.8491 25.523 24.8511 25.499 24.8475 25.4756C24.8475 25.3597 24.7339 25.3597 24.7339 25.1875C24.7315 25.149 24.7374 25.1106 24.7509 25.0747C24.7646 25.0385 24.7856 25.006 24.8128 24.9786C24.84 24.9515 24.8727 24.9304 24.9086 24.9167C24.9445 24.9031 24.983 24.8971 25.0215 24.8993C25.2518 24.8993 25.4242 25.131 25.4242 25.4184C25.4286 25.5242 25.4101 25.6295 25.3705 25.7277C25.3306 25.8257 25.2705 25.9142 25.1937 25.987C24.5029 26.679 24.0996 26.7452 23.1212 27.1985C24.2153 27.7139 25.6532 28.5249 25.6532 29.7304C25.6532 30.3653 25.2518 30.8257 24.6182 30.8257C24.4924 30.8332 24.3663 30.8152 24.2478 30.7721C24.1294 30.7293 24.0209 30.6624 23.9292 30.5759C23.8376 30.4894 23.7646 30.3851 23.7148 30.2692C23.665 30.1536 23.6394 30.0288 23.6398 29.9028C23.6273 29.7507 23.6743 29.5997 23.7711 29.4817C23.8679 29.3636 24.0068 29.2877 24.1584 29.27C24.2718 29.27 24.4458 29.27 24.4458 29.0978C24.4458 28.9248 24.2718 28.8679 24.0431 28.8679C23.4755 28.8679 23.1212 29.3287 23.1212 29.9028C23.1202 30.2147 23.221 30.5186 23.4081 30.7684C23.5952 31.0179 23.8586 31.1998 24.1584 31.2865C26.9196 32.0943 28.8193 34.3396 28.8193 36.991C28.8193 39.0646 28.0718 40.1583 26.9272 41.54C26.6449 41.8672 26.2927 42.1264 25.8964 42.2988C25.5002 42.471 25.0703 42.5518 24.6386 42.5351C23.5456 42.5351 22.8546 41.9663 22.8546 41.0947C22.8546 40.3462 23.4222 39.7679 24.0635 39.7679C24.5234 39.7679 24.9832 39.9972 24.9832 40.5148C24.9832 40.975 24.6958 41.2633 25.0425 41.2633C25.33 41.2633 25.4453 40.8616 25.4453 40.4598C25.4427 40.1835 25.3433 39.9167 25.1647 39.7058C24.986 39.4949 24.739 39.3533 24.4668 39.3053C24.5609 39.2168 24.6351 39.1095 24.6847 38.9902C24.7343 38.8708 24.7581 38.7425 24.7543 38.6135C24.7543 37.9807 24.1869 37.6926 23.7761 37.6926C23.4297 37.6926 23.2575 37.8079 23.2575 37.9807C23.2575 38.1531 23.4297 38.0959 23.6608 38.0959C23.8917 38.0959 24.2284 38.1531 24.2284 38.6135C24.2232 38.7913 24.1582 38.9621 24.0433 39.0982C23.9286 39.2341 23.7711 39.3271 23.5967 39.3618C23.2192 39.4612 22.8873 39.687 22.6566 40.0016C22.4257 40.3162 22.31 40.7005 22.3287 41.0903C22.3287 41.4942 22.5025 41.8491 22.5025 42.1274C22.5096 42.1848 22.5047 42.2431 22.4876 42.2984C22.4707 42.3538 22.4424 42.405 22.4045 42.4486C22.3664 42.4922 22.3196 42.5274 22.2672 42.5518C22.2146 42.5762 22.1577 42.5891 22.0998 42.5901C21.5322 42.5901 21.8123 41.8981 21.4659 41.8981C21.2937 41.8981 21.2366 42.0703 21.2366 42.2449C21.2366 42.7057 21.4659 43.109 22.0998 43.109C22.294 43.1154 22.4846 43.0562 22.6409 42.941C22.7975 42.8259 22.9107 42.6615 22.9623 42.4742C23.3656 42.8759 24.056 43.0428 24.6882 43.0428C24.9612 43.0453 25.233 43.0063 25.4942 42.9271C23.4809 44.7712 23.0195 45.7512 22.5596 46.7878C22.4822 46.6576 22.371 46.5511 22.2374 46.4797C22.1041 46.4083 21.9538 46.3746 21.8026 46.3823C21.235 46.3823 20.9398 46.7291 20.9398 47.2482C20.9398 47.3623 20.9398 47.7091 21.2275 47.7091C21.4562 47.7091 21.3427 47.4775 21.3427 47.3054C21.3433 47.2476 21.3562 47.1909 21.3804 47.1385C21.4044 47.0861 21.4394 47.0395 21.4828 47.0016C21.5262 46.9637 21.5772 46.9354 21.6322 46.9185C21.6873 46.9016 21.7453 46.8965 21.8026 46.9036C22.2624 46.9036 22.3702 47.3054 22.2624 47.9402C22.2152 48.2447 22.1964 48.553 22.2059 48.8609C22.2059 51.5678 24.2191 53.5278 26.8662 53.5278C27.2517 53.517 27.6362 53.4788 28.0169 53.4119L28.8231 54.6234C28.5461 54.7024 28.3019 54.8676 28.1258 55.0954C27.9498 55.3231 27.8512 55.6012 27.8447 55.8889C27.8401 56.1523 27.9155 56.4112 28.0609 56.631C28.2061 56.8508 28.4146 57.0216 28.6588 57.1208C28.8203 57.1865 28.9943 57.2188 29.1692 57.2156C29.6307 57.2156 29.9753 56.9841 29.9753 56.753C29.9782 56.7223 29.9743 56.6913 29.9638 56.6622C29.9532 56.6332 29.9366 56.6066 29.9148 56.5848C29.8929 56.563 29.8664 56.5463 29.8374 56.5358C29.8082 56.5253 29.7773 56.5213 29.7465 56.5243C29.572 56.5243 29.572 56.6965 29.1784 56.6965C29.0177 56.7006 28.8596 56.6552 28.7255 56.5667C28.5914 56.4781 28.4876 56.3505 28.4283 56.2011C28.3886 56.1019 28.3696 55.9956 28.3724 55.8889C28.3724 55.4306 28.7772 55.0839 29.3508 55.0839C30.4442 55.0839 30.9628 56.3515 31.7103 57.6174L32.4673 58.8854C33.6766 60.9585 35.6313 62.1684 37.2435 62.1684C37.4752 62.1777 37.7071 62.1585 37.9343 62.1113C38.6247 62.8032 39.3154 64.0691 39.6035 64.6454C39.8905 64.0766 40.5797 62.8032 41.2722 62.1113C41.4992 62.1585 41.7309 62.1777 41.9626 62.1684C43.5725 62.1684 45.5299 60.9591 46.7386 58.8854L47.4861 57.6174C48.2334 56.3519 48.752 55.0833 49.846 55.0833C50.4136 55.0833 50.8241 55.4306 50.8241 55.8889C50.8266 55.9956 50.8074 56.1015 50.7679 56.2005C50.7282 56.2997 50.6691 56.3896 50.5937 56.4652C50.5183 56.5408 50.4285 56.6001 50.3295 56.6399C50.2305 56.6796 50.1246 56.6989 50.0178 56.6965C49.6151 56.6965 49.6151 56.5243 49.4503 56.5243C49.4193 56.5209 49.3882 56.5247 49.3588 56.535C49.3295 56.5453 49.3027 56.562 49.2807 56.584C49.2584 56.6058 49.2416 56.6324 49.2309 56.6616C49.2203 56.6909 49.2164 56.7221 49.2193 56.753C49.2193 56.9847 49.5655 57.2162 50.0254 57.2162C50.2003 57.219 50.3741 57.1867 50.5364 57.121C50.6987 57.0554 50.8459 56.9576 50.9695 56.8338C51.0933 56.71 51.1907 56.5624 51.2559 56.4001C51.3214 56.2376 51.3533 56.0638 51.35 55.8889C51.3406 55.6034 51.241 55.3284 51.0657 55.1031C50.8903 54.8777 50.6481 54.7135 50.3737 54.6343L51.1784 53.4232C51.5585 53.4901 51.9429 53.5283 52.3284 53.5391C54.9777 53.5391 56.9915 51.5791 56.9915 48.8728C57.0008 48.5647 56.9818 48.2564 56.9344 47.9519C56.8187 47.3167 56.9344 46.9149 57.3942 46.9149C57.4515 46.9076 57.5097 46.9126 57.5648 46.9294C57.62 46.9463 57.671 46.9747 57.7144 47.0125C57.7576 47.0504 57.7926 47.0973 57.8168 47.1496C57.8408 47.202 57.8537 47.2589 57.8541 47.3167C57.8541 47.4889 57.7384 47.7204 57.9693 47.7204C58.257 47.7204 58.257 47.3736 58.257 47.2601C58.257 46.7404 57.9693 46.3936 57.3942 46.3936L57.4093 46.397ZM55.8974 56.3045C53.3655 58.8973 49.6242 60.7399 46.0576 62.4699C43.698 63.6223 41.3972 64.7729 39.6122 66.1562C37.8282 64.7723 35.5252 63.6223 33.1672 62.4699C29.5989 60.7399 25.8593 58.8973 23.3279 56.3045C20.1106 53.0221 18.5497 49.6706 18.5497 45.8806C18.5497 42.6589 19.8178 39.9466 22.6937 36.3175C22.9224 36.0266 23.1536 35.7392 23.1536 35.5097C23.1536 35.2803 22.9224 34.8179 22.809 34.589L20.794 30.2085C20.3342 29.2307 19.8743 28.3132 19.8743 27.3294C19.8743 26.5218 20.3929 25.9455 21.0815 25.3694L23.9596 22.7794C24.0098 22.7264 24.0423 22.659 24.0524 22.5866C24.0627 22.5144 24.0502 22.4406 24.0167 22.3757L23.097 20.4802C22.9812 20.2487 22.9812 20.0743 23.1536 19.9606C25.9729 18.0653 28.3331 17.4836 31.7274 16.5608C34.9443 15.6966 37.8282 14.9475 39.6126 13.7951C41.3972 14.9475 44.2731 15.6907 47.4958 16.5608C50.8901 17.4836 53.1931 18.1734 56.0696 19.9606C56.242 20.0743 56.242 20.2487 56.1262 20.4802L55.2065 22.3757C55.1737 22.441 55.162 22.5146 55.1725 22.5868C55.1833 22.659 55.2156 22.7262 55.2658 22.7794L58.132 25.3679C58.8227 25.9364 59.3391 26.5201 59.3391 27.3279C59.3391 28.3079 58.8793 29.2232 58.4194 30.2064L56.41 34.5868C56.2948 34.8157 56.0637 35.2781 56.0637 35.5077C56.0637 35.737 56.2948 36.0251 56.5235 36.3153C59.6327 39.7723 60.6675 42.6514 60.6675 45.8784C60.6675 49.6691 59.1142 53.0221 55.8915 56.3029L55.8974 56.3045ZM58.5956 36.4859C58.0786 35.8507 57.7916 35.5624 57.7916 35.3337C57.7916 35.1044 57.964 34.7651 58.1363 34.3537L59.8615 30.5515C60.38 29.3993 60.8399 28.4193 60.8399 27.212C60.8399 26.3463 60.4953 25.4815 59.6327 24.733L57.1573 22.6007C57.0585 22.5183 56.9925 22.4033 56.9713 22.2763C56.9502 22.1495 56.9752 22.0192 57.0421 21.9093L57.964 19.8356C57.9999 19.7666 58.0078 19.6864 57.9862 19.6117C57.9646 19.5371 57.9152 19.4734 57.8481 19.4339C55.0287 17.5386 51.8066 16.3788 48.7557 15.5139C45.7054 14.7085 41.62 13.5561 39.6072 12C37.5919 13.5561 33.5064 14.6535 30.4561 15.5139C27.4058 16.3745 24.1847 17.5322 21.3729 19.4335C21.3051 19.4722 21.2551 19.5359 21.2336 19.6109C21.212 19.6859 21.2207 19.7664 21.2576 19.8352L22.1789 21.9103C22.2464 22.02 22.2722 22.1503 22.2515 22.2775C22.2307 22.4045 22.1648 22.5199 22.0658 22.6022L19.5901 24.7346C18.7269 25.4928 18.3805 26.3473 18.3805 27.2136C18.3805 28.4209 18.8404 29.4003 19.3589 30.5527L21.0849 34.3547C21.2586 34.7586 21.431 35.1032 21.431 35.3347C21.431 35.5662 21.1434 35.8517 20.625 36.4871C18.0371 39.7092 17 42.3627 17 45.8778C17 50.7734 19.4167 54.5169 22.1789 57.3428C24.9983 60.2219 28.9117 62.1226 32.4808 63.8511C34.8403 65.0035 37.3134 66.1557 39.6164 68C41.9174 66.1557 44.3926 65.0035 46.7521 63.8511C50.319 62.1226 54.2906 60.2219 57.0518 57.3428C59.8141 54.5169 62.2307 50.7734 62.2307 45.8784C62.2307 42.3621 61.1958 39.7129 58.6053 36.4871" fill="white"/>
<path d="M43.5904 47.375C43.3093 48.0368 42.8488 48.6068 42.2608 49.0206C41.6736 49.434 40.9825 49.6749 40.2653 49.7157C37.5806 49.9377 37.5408 46.7462 37.5408 46.7462V38.9584H37.6199C38.4846 38.8681 39.3587 38.9435 40.1953 39.1803C42.6135 39.8663 44.3452 42.0513 44.2581 44.5666C44.2204 45.5372 43.9937 46.4913 43.5904 47.375ZM37.5348 28.2559C37.5348 28.2559 38.1024 26.7516 40.2352 26.9125C42.3675 27.074 43.5241 28.8247 43.5844 30.5417C43.6447 32.2594 44.1014 36.0632 39.7225 37.5885H37.5408L37.5354 28.2559H37.5348ZM45.4539 42.3987C45.2373 41.5676 44.8677 40.7842 44.364 40.0887C43.2285 38.5572 41.9212 38.0565 41.8647 38.0377C42.1739 37.8623 42.4709 37.6663 42.7536 37.4507C43.6693 36.7536 44.3577 35.8001 44.7314 34.7116C45.2802 33.1603 45.3516 31.4802 44.936 29.888C43.9893 26.3364 41.4598 25.8055 41.4598 25.8055C41.4598 25.8055 38.517 24.6375 36.4923 27.2059C36.4697 27.1704 35.3703 25.4758 33.4248 26.365C31.7409 27.2932 32.7096 28.7622 33.1242 29.0179C33.1242 29.0179 33.6745 29.3841 33.9907 29.0179C34.2217 28.7455 33.9907 28.4632 33.8604 28.2732C33.618 27.8941 34.0193 27.4715 34.5829 27.4811C35.0729 27.4811 36.0513 27.8602 36.0513 29.1869V47.1921C36.0513 47.3417 35.898 48.3029 35.0902 48.2834C34.2826 48.2646 33.9891 47.4193 34.4506 46.9572C34.42 46.8825 34.3704 46.817 34.3068 46.7672C34.2232 46.7242 32.9822 46.6896 33.1276 48.0073C33.2734 49.3243 34.8501 49.9607 36.3691 49.1327C36.7401 49.785 37.2799 50.3255 37.932 50.6975C38.5838 51.0693 39.3238 51.2587 40.0743 51.246C42.7347 51.246 44.4035 49.0131 44.4035 49.0131C44.4035 49.0131 46.5385 46.4188 45.4502 42.4235" fill="white"/>
<path d="M34.2898 45.7228C36.2322 47.1777 38.6209 47.9103 41.0449 47.7943C42.6908 47.7276 44.2846 47.1981 45.6433 46.2667C49.5752 43.519 47.8172 39.9539 47.7019 39.6329C47.7019 39.6329 46.6158 37.1559 43.9434 36.2352C43.9434 36.2352 41.936 35.5605 38.7494 35.3272C35.5628 35.0941 34.314 33.7297 34.8002 32.0561C35.2865 30.3826 37.7672 29.6278 39.3019 29.5314C41.4875 29.4062 43.6542 29.9979 45.4727 31.2168C45.7903 31.4709 46.0853 31.752 46.3547 32.0577C46.3547 32.0577 46.7898 32.6265 47.0659 32.3345C47.3008 32.0788 46.8919 31.7207 46.8919 31.7207C46.4478 31.1837 46.1829 30.5207 46.1349 29.8254C46.0909 29.3502 46.0821 28.8725 46.1085 28.3962C46.128 28.204 46.1635 28.0139 46.2147 27.8277C46.2599 27.6662 46.2976 27.4351 46.0649 27.3958C45.876 27.3635 45.7834 27.5849 45.7639 27.6192C45.5348 28.0056 45.1896 28.3095 44.7776 28.4879C44.3654 28.6662 43.9073 28.7097 43.4691 28.6123C40.8935 28.0532 39.3057 28.0796 39.3057 28.0796C39.3057 28.0796 36.301 27.8713 34.2894 30.0337C33.8447 30.4977 33.5155 31.0597 33.3289 31.6747C33.1422 32.2894 33.1029 32.9397 33.2146 33.5724C33.6939 35.9902 36.1911 36.8798 38.7629 36.8528C39.7822 36.8415 40.7989 36.9548 41.7906 37.1904C42.3458 37.318 42.8902 37.4904 43.4179 37.7056C44.0912 37.974 44.6959 38.39 45.187 38.9231C45.6782 39.4561 46.0437 40.0927 46.2561 40.7857C46.6233 42.0688 46.4886 43.7913 44.1539 45.185C39.8431 47.7619 34.6544 45.3738 32.4802 40.2947C32.4379 40.2114 32.3647 40.1481 32.2761 40.1187C32.1876 40.0892 32.091 40.0959 32.0073 40.1374C31.7327 40.251 31.8847 40.6415 31.8847 40.6415C31.8847 40.6415 32.6923 42.099 32.5371 43.2476C32.4123 44.0258 32.0015 44.7295 31.3849 45.2205C31.1614 45.425 30.8874 45.6696 31.101 45.8823C31.3149 46.0943 31.5399 45.9769 31.8577 45.6926H31.8712C32.2267 45.4405 32.653 45.3076 33.0888 45.3129C33.5249 45.3185 33.9476 45.4619 34.297 45.7228" fill="white"/>
<path d="M39.3019 28.3676V49.5798C39.3112 50.3478 39.1444 51.1075 38.8139 51.8009C38.4489 52.5418 37.8432 53.2834 36.8761 53.2834C36.8761 53.2834 35.741 53.3802 35.3738 52.6636C34.9365 51.8219 35.6709 51.494 35.6709 51.494C35.6709 51.494 36.182 51.2587 35.9376 50.8629C35.6936 50.4666 35.1502 50.6735 35.1502 50.6735C34.8673 50.7868 34.61 50.956 34.394 51.1708C34.1777 51.3857 34.0069 51.642 33.8919 51.9243C33.4757 52.8989 34.1611 54.525 36.0209 54.7028C36.7519 54.776 37.4891 54.6538 38.157 54.3483C38.825 54.0428 39.3999 53.5653 39.8224 52.9646C39.8224 52.9646 41.181 54.5756 43.1544 54.8373C43.1544 54.8373 43.3915 54.8659 43.4594 54.7651C43.5276 54.6651 43.5427 54.4997 43.2267 54.28C42.9106 54.0602 41.0826 53.0066 41.0901 51.1661V27.6643C41.0837 27.0166 41.2413 26.3778 41.5476 25.8069C41.8539 25.2362 42.2994 24.7519 42.8428 24.3992L42.8896 24.3706C43.623 23.9703 44.4021 23.6598 45.2099 23.4456C45.2099 23.4456 45.6622 23.3658 45.7149 23.1425C45.7677 22.9189 45.6374 22.7784 45.3364 22.8108C44.7554 22.8566 44.183 22.9778 43.6331 23.171C42.8218 23.4591 41.8412 24.0389 40.2672 24.0405C39.0525 24.0405 37.4286 23.6124 36.742 23.4154C36.5704 23.3631 36.4022 23.2998 36.2385 23.226C36.0796 23.1559 35.86 23.0816 35.7199 23.1748C35.6576 23.223 35.6144 23.292 35.5983 23.3694C35.5823 23.4466 35.5944 23.5271 35.6323 23.5964C35.6666 23.6569 35.7191 23.7049 35.7824 23.7336C36.2536 24.0314 36.3839 24.0028 36.8271 24.2324C37.3467 24.4976 37.8109 24.8598 38.1947 25.2994C38.9232 26.1559 39.316 27.2473 39.3001 28.3714" fill="white"/>
</svg>
