<svg width="80" height="80" viewBox="0 0 80 80" fill="none" xmlns="http://www.w3.org/2000/svg">
<g clip-path="url(#clip0_22116_4339)">
<rect width="80" height="80" fill="#EC0000"/>
<path d="M50.3862 37.9001C50.315 36.2265 49.8447 34.5942 49.0144 33.1393L41.502 20.1597C40.9387 19.1787 40.5421 18.1109 40.3286 17L40.0008 17.5375C39.09 19.1225 38.6106 20.9186 38.6106 22.7466C38.6106 24.5746 39.09 26.3707 40.0008 27.9556L46.0088 38.3721C46.9197 39.9571 47.399 41.7531 47.399 43.5812C47.399 45.4092 46.9197 47.2053 46.0088 48.7902L45.681 49.3343C45.4705 48.2357 45.073 47.1814 44.506 46.2172L39.0175 36.6546L35.4956 30.5827C34.9346 29.6095 34.535 28.5519 34.3124 27.4509L33.9928 27.9933C33.0847 29.5721 32.6041 31.3605 32.5987 33.1819C32.5932 35.0032 33.063 36.7945 33.9617 38.3787L40.0008 48.7968C40.9117 50.3817 41.391 52.1778 41.391 54.0058C41.391 55.8339 40.9117 57.63 40.0008 59.2149L39.6812 59.759C39.4563 58.6589 39.0574 57.6017 38.4996 56.6272L30.9872 43.5951C29.9965 41.8806 29.5198 39.9174 29.6138 37.9395C21.5606 40.0159 16 44.4948 16 49.667C16 56.8566 26.7377 62.6728 39.9992 62.6728C53.2607 62.6728 64 56.85 64 49.6588C64 44.4834 58.4394 40.0093 50.3862 37.9001Z" fill="white"/>
</g>
<defs>
<clipPath id="clip0_22116_4339">
<rect width="80" height="80" fill="white"/>
</clipPath>
</defs>
</svg>
