<svg width="80" height="80" viewBox="0 0 80 80" fill="none" xmlns="http://www.w3.org/2000/svg">
<rect width="80" height="80" fill="#033C45"/>
<path d="M34.0213 33.6914L40.0012 23.3623L35.1678 15H14.795C14.3614 15.0423 13.9228 15.163 13.5182 15.3979C12.5431 15.9589 11.9968 16.9813 12 18.0331C12 18.493 12.101 18.9513 12.3196 19.3899L27.267 45.3641L32.1134 36.9822H32.1166L34.0213 33.6914Z" fill="#75C044"/>
<path d="M35.1669 15.001L47.88 36.9832H56.8197H57.539L67.6999 19.3288C67.8844 18.9441 68 18.502 68 18.0325C68 16.4213 66.7296 15.1036 65.1317 15.001H35.1669Z" fill="#00AE9D"/>
<path d="M56.8192 36.9834H32.1155L27.2656 45.3637L37.4967 62.9871C37.7479 63.3555 38.0709 63.6719 38.4736 63.9066C38.9497 64.1823 39.47 64.3144 39.9886 64.3144C40.9801 64.3144 41.952 63.817 42.5326 62.9363L57.5386 36.9834H56.8192Z" fill="#BFD730"/>
</svg>
